<svg width="54" height="15" viewBox="0 0 54 15" fill="none" xmlns="http://www.w3.org/2000/svg">
<rect width="54" height="15" rx="5" fill="#32D74B"/>
<path d="M8.09152 11V5.4H8.95152V11H8.09152ZM12.7534 10.36C13.2334 10.36 13.5867 10.2333 13.8134 9.98C14.0467 9.72667 14.1634 9.38 14.1634 8.94V3.5H15.0234V8.94C15.0234 9.63333 14.8301 10.1667 14.4434 10.54C14.0567 10.9133 13.4934 11.1 12.7534 11.1C12.0134 11.1 11.4501 10.9133 11.0634 10.54C10.6767 10.1667 10.4834 9.63333 10.4834 8.94V5.4H11.3434V8.94C11.3434 9.38 11.4567 9.72667 11.6834 9.98C11.9167 10.2333 12.2734 10.36 12.7534 10.36ZM9.86855 4.64V3.94H13.6586V4.64H9.86855ZM20.4086 11V7.67C20.4086 7.43667 20.3786 7.22 20.3186 7.02C20.2652 6.82 20.1786 6.65 20.0586 6.51C19.9386 6.36333 19.7852 6.25 19.5986 6.17C19.4186 6.08333 19.2019 6.04 18.9486 6.04C18.3552 6.04 17.9019 6.23667 17.5886 6.63C17.2819 7.01667 17.1286 7.56 17.1286 8.26C17.1286 8.64667 17.1719 8.97333 17.2586 9.24C17.3519 9.5 17.4686 9.71 17.6086 9.87C17.7552 10.03 17.9152 10.1467 18.0886 10.22C18.2619 10.2867 18.4352 10.32 18.6086 10.32C18.7486 10.32 18.8686 10.31 18.9686 10.29C19.0752 10.27 19.1819 10.24 19.2886 10.2L19.4486 10.88C19.3352 10.9333 19.2019 10.9767 19.0486 11.01C18.8952 11.0433 18.7352 11.06 18.5686 11.06C18.2686 11.06 17.9786 11.0033 17.6986 10.89C17.4186 10.7767 17.1719 10.6067 16.9586 10.38C16.7519 10.1467 16.5852 9.85667 16.4586 9.51C16.3319 9.15667 16.2686 8.74 16.2686 8.26C16.2686 7.84 16.3219 7.45 16.4286 7.09C16.5419 6.73 16.7086 6.42 16.9286 6.16C17.1486 5.89333 17.4252 5.68333 17.7586 5.53C18.0919 5.37667 18.4819 5.3 18.9286 5.3C19.3352 5.3 19.6852 5.36333 19.9786 5.49C20.2719 5.61667 20.5119 5.79 20.6986 6.01C20.8919 6.23 21.0352 6.48333 21.1286 6.77C21.2219 7.05667 21.2686 7.36 21.2686 7.68V11H20.4086ZM25.0386 10.36C25.5186 10.36 25.8719 10.2333 26.0986 9.98C26.3319 9.72667 26.4486 9.38 26.4486 8.94V5.4H27.3086V8.94C27.3086 9.63333 27.1152 10.1667 26.7286 10.54C26.3419 10.9133 25.7786 11.1 25.0386 11.1C24.2986 11.1 23.7352 10.9133 23.3486 10.54C22.9619 10.1667 22.7686 9.63333 22.7686 8.94V5.4H23.6286V8.94C23.6286 9.38 23.7419 9.72667 23.9686 9.98C24.2019 10.2333 24.5586 10.36 25.0386 10.36ZM30.3037 10.37C30.757 10.37 31.1004 10.2833 31.3337 10.11C31.567 9.93 31.6837 9.72667 31.6837 9.5C31.6837 9.36 31.6404 9.23667 31.5537 9.13C31.4737 9.02333 31.3637 8.93 31.2237 8.85C31.0904 8.76333 30.937 8.69 30.7637 8.63C30.597 8.57 30.427 8.51333 30.2537 8.46C30.0004 8.38667 29.7637 8.30667 29.5437 8.22C29.3304 8.12667 29.1437 8.01667 28.9837 7.89C28.8304 7.75667 28.7104 7.60333 28.6237 7.43C28.537 7.25 28.4937 7.03667 28.4937 6.79C28.4937 6.31667 28.6804 5.95 29.0537 5.69C29.4337 5.43 29.947 5.3 30.5937 5.3C30.907 5.3 31.2137 5.33333 31.5137 5.4C31.8137 5.46 32.0804 5.55 32.3137 5.67L32.0937 6.35C31.687 6.13667 31.2137 6.03 30.6737 6.03C30.2537 6.03 29.9237 6.10333 29.6837 6.25C29.4504 6.39667 29.3337 6.57667 29.3337 6.79C29.3337 6.91 29.367 7.01667 29.4337 7.11C29.5004 7.20333 29.5904 7.28667 29.7037 7.36C29.817 7.42667 29.947 7.49 30.0937 7.55C30.2404 7.60333 30.397 7.65667 30.5637 7.71C30.877 7.81 31.1537 7.91667 31.3937 8.03C31.6404 8.13667 31.847 8.26 32.0137 8.4C32.1804 8.54 32.307 8.7 32.3937 8.88C32.4804 9.06 32.5237 9.27333 32.5237 9.52C32.5237 9.99333 32.3437 10.3767 31.9837 10.67C31.6304 10.9567 31.0837 11.1 30.3437 11.1C29.977 11.1 29.637 11.0667 29.3237 11C29.017 10.9333 28.757 10.8367 28.5437 10.71L28.7537 10.04C28.9604 10.14 29.197 10.22 29.4637 10.28C29.7304 10.34 30.0104 10.37 30.3037 10.37ZM27.9454 4.64V3.94H32.2354V4.64H27.9454ZM37.4154 11V7.47C37.4154 6.99 37.292 6.63333 37.0454 6.4C36.7987 6.16 36.4454 6.04 35.9854 6.04C35.6054 6.04 35.2687 6.12333 34.9754 6.29C34.682 6.45 34.482 6.66333 34.3754 6.93L35.1354 7.63C34.9554 7.72333 34.822 7.84 34.7354 7.98C34.6487 8.11333 34.6054 8.28667 34.6054 8.5V11H33.7454V8.62C33.7454 8.42667 33.792 8.24333 33.8854 8.07C33.9787 7.89667 34.112 7.76667 34.2854 7.68L33.4654 6.98C33.5187 6.76667 33.6187 6.56 33.7654 6.36C33.9187 6.15333 34.1054 5.97333 34.3254 5.82C34.5454 5.66 34.7954 5.53333 35.0754 5.44C35.362 5.34667 35.6654 5.3 35.9854 5.3C36.3654 5.3 36.6987 5.35333 36.9854 5.46C37.272 5.56667 37.5087 5.71667 37.6954 5.91C37.8887 6.10333 38.032 6.33333 38.1254 6.6C38.2254 6.86 38.2754 7.15 38.2754 7.47V11H37.4154ZM42.1505 11V7.39C42.1505 6.49 41.7538 6.04 40.9605 6.04C40.6405 6.04 40.3405 6.1 40.0605 6.22C39.7805 6.33333 39.5438 6.47 39.3505 6.63L39.1205 5.98C39.2205 5.89333 39.3405 5.81 39.4805 5.73C39.6272 5.64333 39.7838 5.57 39.9505 5.51C40.1238 5.44333 40.3005 5.39333 40.4805 5.36C40.6672 5.32 40.8538 5.3 41.0405 5.3C41.6938 5.3 42.1838 5.48667 42.5105 5.86C42.8438 6.22667 43.0105 6.75 43.0105 7.43V11H42.1505ZM46.0068 10.37C46.4602 10.37 46.8035 10.2833 47.0368 10.11C47.2702 9.93 47.3868 9.72667 47.3868 9.5C47.3868 9.36 47.3435 9.23667 47.2568 9.13C47.1768 9.02333 47.0668 8.93 46.9268 8.85C46.7935 8.76333 46.6402 8.69 46.4668 8.63C46.3002 8.57 46.1302 8.51333 45.9568 8.46C45.7035 8.38667 45.4668 8.30667 45.2468 8.22C45.0335 8.12667 44.8468 8.01667 44.6868 7.89C44.5335 7.75667 44.4135 7.60333 44.3268 7.43C44.2402 7.25 44.1968 7.03667 44.1968 6.79C44.1968 6.31667 44.3835 5.95 44.7568 5.69C45.1368 5.43 45.6502 5.3 46.2968 5.3C46.6102 5.3 46.9168 5.33333 47.2168 5.4C47.5168 5.46 47.7835 5.55 48.0168 5.67L47.7968 6.35C47.3902 6.13667 46.9168 6.03 46.3768 6.03C45.9568 6.03 45.6268 6.10333 45.3868 6.25C45.1535 6.39667 45.0368 6.57667 45.0368 6.79C45.0368 6.91 45.0702 7.01667 45.1368 7.11C45.2035 7.20333 45.2935 7.28667 45.4068 7.36C45.5202 7.42667 45.6502 7.49 45.7968 7.55C45.9435 7.60333 46.1002 7.65667 46.2668 7.71C46.5802 7.81 46.8568 7.91667 47.0968 8.03C47.3435 8.13667 47.5502 8.26 47.7168 8.4C47.8835 8.54 48.0102 8.7 48.0968 8.88C48.1835 9.06 48.2268 9.27333 48.2268 9.52C48.2268 9.99333 48.0468 10.3767 47.6868 10.67C47.3335 10.9567 46.7868 11.1 46.0468 11.1C45.6802 11.1 45.3402 11.0667 45.0268 11C44.7202 10.9333 44.4602 10.8367 44.2468 10.71L44.4568 10.04C44.6635 10.14 44.9002 10.22 45.1668 10.28C45.4335 10.34 45.7135 10.37 46.0068 10.37Z" fill="white"/>
</svg>
