<svg width="76" height="23" viewBox="0 0 76 23" fill="none" xmlns="http://www.w3.org/2000/svg">
<rect width="76" height="23" rx="5" fill="#ED4C5C"/>
<path d="M28.876 8.848C28.876 9.528 28.7 10.152 28.348 10.72C27.996 11.288 27.484 11.752 26.812 12.112C26.14 12.472 25.34 12.684 24.412 12.748L23.896 15.64C23.696 16.752 23.152 17.308 22.264 17.308C21.776 17.308 21.324 17.164 20.908 16.876C20.5 16.588 20.172 16.148 19.924 15.556C19.676 14.964 19.552 14.236 19.552 13.372C19.552 11.748 19.812 10.372 20.332 9.244C20.86 8.108 21.564 7.26 22.444 6.7C23.332 6.132 24.308 5.848 25.372 5.848C26.124 5.848 26.76 5.98 27.28 6.244C27.808 6.508 28.204 6.868 28.468 7.324C28.74 7.772 28.876 8.28 28.876 8.848ZM24.628 11.512C26.268 11.304 27.088 10.452 27.088 8.956C27.088 8.428 26.912 8 26.56 7.672C26.216 7.336 25.68 7.168 24.952 7.168C24.128 7.168 23.408 7.428 22.792 7.948C22.184 8.468 21.712 9.192 21.376 10.12C21.048 11.04 20.884 12.092 20.884 13.276C20.884 13.772 20.932 14.212 21.028 14.596C21.132 14.98 21.26 15.28 21.412 15.496C21.572 15.704 21.724 15.808 21.868 15.808C22.068 15.808 22.22 15.532 22.324 14.98L22.72 12.712C22.408 12.664 22.272 12.644 22.312 12.652C22.072 12.612 21.916 12.54 21.844 12.436C21.772 12.324 21.736 12.184 21.736 12.016C21.736 11.84 21.784 11.7 21.88 11.596C21.984 11.492 22.124 11.44 22.3 11.44C22.38 11.44 22.44 11.444 22.48 11.452C22.672 11.484 22.82 11.504 22.924 11.512C23.028 10.888 23.176 10.052 23.368 9.004C23.416 8.732 23.524 8.54 23.692 8.428C23.868 8.308 24.072 8.248 24.304 8.248C24.568 8.248 24.756 8.3 24.868 8.404C24.988 8.5 25.048 8.656 25.048 8.872C25.048 9 25.04 9.104 25.024 9.184L24.628 11.512ZM34.7546 12.316C34.8586 12.316 34.9386 12.368 34.9946 12.472C35.0506 12.576 35.0786 12.708 35.0786 12.868C35.0786 13.252 34.9626 13.48 34.7306 13.552C34.2506 13.72 33.7226 13.816 33.1466 13.84C32.9946 14.512 32.6946 15.052 32.2466 15.46C31.7986 15.86 31.2906 16.06 30.7226 16.06C30.2426 16.06 29.8306 15.944 29.4866 15.712C29.1506 15.48 28.8946 15.172 28.7186 14.788C28.5426 14.404 28.4546 13.988 28.4546 13.54C28.4546 12.932 28.5706 12.392 28.8026 11.92C29.0346 11.44 29.3546 11.068 29.7626 10.804C30.1706 10.532 30.6226 10.396 31.1186 10.396C31.7266 10.396 32.2146 10.608 32.5826 11.032C32.9586 11.448 33.1786 11.964 33.2426 12.58C33.6186 12.556 34.0666 12.476 34.5866 12.34C34.6506 12.324 34.7066 12.316 34.7546 12.316ZM30.8186 14.788C31.0746 14.788 31.2946 14.684 31.4786 14.476C31.6706 14.268 31.7986 13.968 31.8626 13.576C31.6146 13.408 31.4226 13.188 31.2866 12.916C31.1586 12.644 31.0946 12.356 31.0946 12.052C31.0946 11.924 31.1066 11.796 31.1306 11.668H31.0706C30.7506 11.668 30.4826 11.824 30.2666 12.136C30.0586 12.44 29.9546 12.872 29.9546 13.432C29.9546 13.872 30.0386 14.208 30.2066 14.44C30.3826 14.672 30.5866 14.788 30.8186 14.788ZM40.4567 13.324C40.5607 13.324 40.6407 13.372 40.6967 13.468C40.7607 13.564 40.7927 13.696 40.7927 13.864C40.7927 14.184 40.7167 14.432 40.5647 14.608C40.2207 15.032 39.8487 15.38 39.4487 15.652C39.0567 15.924 38.6087 16.06 38.1047 16.06C37.6807 16.06 37.3367 15.908 37.0727 15.604C36.6167 15.9 36.1407 16.052 35.6447 16.06C35.5407 17.604 35.3047 18.892 34.9367 19.924C34.5687 20.964 34.0287 21.484 33.3167 21.484C32.8847 21.484 32.5647 21.328 32.3567 21.016C32.1487 20.704 32.0447 20.272 32.0447 19.72C32.0447 18.936 32.2247 18.02 32.5847 16.972C32.9447 15.932 33.5007 14.784 34.2527 13.528C34.2527 12.36 34.2447 11.548 34.2287 11.092C34.2207 10.86 34.3127 10.676 34.5047 10.54C34.6967 10.404 34.9367 10.336 35.2247 10.336C35.3927 10.336 35.5127 10.372 35.5847 10.444C35.6647 10.508 35.7087 10.64 35.7167 10.84C35.7167 11.04 35.7207 11.188 35.7287 11.284C35.9847 10.964 36.2367 10.736 36.4847 10.6C36.7327 10.456 36.9967 10.384 37.2767 10.384C37.7247 10.384 38.0887 10.564 38.3687 10.924C38.6567 11.284 38.8007 11.756 38.8007 12.34C38.8007 12.764 38.7327 13.176 38.5967 13.576C38.4607 13.976 38.2727 14.34 38.0327 14.668C38.2007 14.716 38.3407 14.74 38.4527 14.74C38.7167 14.74 38.9687 14.644 39.2087 14.452C39.4487 14.26 39.7567 13.94 40.1327 13.492C40.2287 13.38 40.3367 13.324 40.4567 13.324ZM35.7047 14.908C35.9927 14.844 36.2567 14.688 36.4967 14.44C36.7447 14.184 36.9407 13.872 37.0847 13.504C37.2287 13.128 37.3007 12.736 37.3007 12.328C37.3007 12.088 37.2527 11.908 37.1567 11.788C37.0607 11.66 36.9327 11.596 36.7727 11.596C36.4847 11.596 36.1367 11.9 35.7287 12.508C35.7207 12.86 35.7167 13.376 35.7167 14.056C35.7167 14.424 35.7127 14.708 35.7047 14.908ZM33.4127 20.308C33.6287 20.308 33.8087 19.836 33.9527 18.892C34.0967 17.956 34.1887 16.788 34.2287 15.388C33.8847 16.188 33.6127 16.952 33.4127 17.68C33.2127 18.408 33.1127 19.02 33.1127 19.516C33.1127 19.772 33.1447 19.968 33.2087 20.104C33.2647 20.24 33.3327 20.308 33.4127 20.308ZM41.05 16.06C40.69 16.06 40.394 15.896 40.162 15.568C39.938 15.232 39.826 14.816 39.826 14.32C39.826 13.72 39.866 13.172 39.946 12.676C40.026 12.172 40.158 11.64 40.342 11.08C40.422 10.84 40.534 10.668 40.678 10.564C40.822 10.46 41.05 10.408 41.362 10.408C41.538 10.408 41.658 10.436 41.722 10.492C41.794 10.548 41.83 10.632 41.83 10.744C41.83 10.808 41.786 11.024 41.698 11.392C41.618 11.688 41.554 11.956 41.506 12.196C41.346 13.036 41.266 13.596 41.266 13.876C41.266 14.044 41.286 14.164 41.326 14.236C41.366 14.3 41.43 14.332 41.518 14.332C41.638 14.332 41.786 14.212 41.962 13.972C42.146 13.732 42.338 13.368 42.538 12.88C42.746 12.392 42.946 11.792 43.138 11.08C43.202 10.84 43.298 10.668 43.426 10.564C43.562 10.46 43.762 10.408 44.026 10.408C44.21 10.408 44.338 10.432 44.41 10.48C44.482 10.52 44.518 10.6 44.518 10.72C44.518 10.92 44.418 11.468 44.218 12.364C43.994 13.388 43.882 14.02 43.882 14.26C43.882 14.412 43.914 14.532 43.978 14.62C44.042 14.7 44.126 14.74 44.23 14.74C44.39 14.74 44.578 14.644 44.794 14.452C45.018 14.252 45.314 13.932 45.682 13.492C45.778 13.38 45.886 13.324 46.006 13.324C46.11 13.324 46.19 13.372 46.246 13.468C46.31 13.564 46.342 13.696 46.342 13.864C46.342 14.184 46.266 14.432 46.114 14.608C45.77 15.032 45.398 15.38 44.998 15.652C44.606 15.924 44.158 16.06 43.654 16.06C43.27 16.06 42.986 15.912 42.802 15.616C42.626 15.32 42.538 14.904 42.538 14.368C42.402 14.912 42.198 15.332 41.926 15.628C41.654 15.916 41.362 16.06 41.05 16.06ZM49.917 13.324C50.021 13.324 50.101 13.372 50.157 13.468C50.221 13.564 50.253 13.696 50.253 13.864C50.253 14.184 50.177 14.432 50.025 14.608C49.681 15.032 49.305 15.38 48.897 15.652C48.497 15.924 48.041 16.06 47.529 16.06C46.825 16.06 46.301 15.74 45.957 15.1C45.621 14.46 45.453 13.632 45.453 12.616C45.453 11.64 45.577 10.528 45.825 9.28C46.081 8.032 46.453 6.96 46.941 6.064C47.437 5.168 48.025 4.72 48.705 4.72C49.089 4.72 49.389 4.9 49.605 5.26C49.829 5.612 49.941 6.12 49.941 6.784C49.941 7.736 49.677 8.84 49.149 10.096C48.621 11.352 47.905 12.596 47.001 13.828C47.057 14.156 47.149 14.392 47.277 14.536C47.405 14.672 47.573 14.74 47.781 14.74C48.109 14.74 48.397 14.648 48.645 14.464C48.893 14.272 49.209 13.948 49.593 13.492C49.689 13.38 49.797 13.324 49.917 13.324ZM48.441 5.908C48.257 5.908 48.049 6.24 47.817 6.904C47.585 7.568 47.381 8.392 47.205 9.376C47.029 10.36 46.933 11.304 46.917 12.208C47.485 11.272 47.937 10.336 48.273 9.4C48.609 8.456 48.777 7.596 48.777 6.82C48.777 6.212 48.665 5.908 48.441 5.908ZM50.6418 16.06C50.1458 16.06 49.7498 15.88 49.4538 15.52C49.1578 15.16 49.0098 14.688 49.0098 14.104C49.0098 13.464 49.1578 12.86 49.4538 12.292C49.7498 11.716 50.1418 11.256 50.6298 10.912C51.1258 10.56 51.6498 10.384 52.2018 10.384C52.3778 10.384 52.4938 10.42 52.5498 10.492C52.6138 10.556 52.6658 10.676 52.7058 10.852C52.8738 10.82 53.0498 10.804 53.2338 10.804C53.6258 10.804 53.8218 10.944 53.8218 11.224C53.8218 11.392 53.7618 11.792 53.6418 12.424C53.4578 13.344 53.3658 13.984 53.3658 14.344C53.3658 14.464 53.3938 14.56 53.4498 14.632C53.5138 14.704 53.5938 14.74 53.6898 14.74C53.8418 14.74 54.0258 14.644 54.2418 14.452C54.4578 14.252 54.7498 13.932 55.1178 13.492C55.2138 13.38 55.3218 13.324 55.4418 13.324C55.5458 13.324 55.6258 13.372 55.6818 13.468C55.7458 13.564 55.7778 13.696 55.7778 13.864C55.7778 14.184 55.7018 14.432 55.5498 14.608C55.2218 15.016 54.8738 15.36 54.5058 15.64C54.1378 15.92 53.7818 16.06 53.4378 16.06C53.1738 16.06 52.9298 15.972 52.7058 15.796C52.4898 15.612 52.3258 15.364 52.2138 15.052C51.7978 15.724 51.2738 16.06 50.6418 16.06ZM51.0738 14.848C51.2498 14.848 51.4178 14.744 51.5778 14.536C51.7378 14.328 51.8538 14.052 51.9258 13.708L52.3698 11.5C52.0338 11.508 51.7218 11.636 51.4338 11.884C51.1538 12.124 50.9298 12.444 50.7618 12.844C50.5938 13.244 50.5098 13.668 50.5098 14.116C50.5098 14.364 50.5578 14.548 50.6538 14.668C50.7578 14.788 50.8978 14.848 51.0738 14.848ZM59.6506 12.052C59.8266 12.052 59.9746 12.116 60.0946 12.244C60.2226 12.364 60.2866 12.516 60.2866 12.7C60.2866 12.804 60.2626 12.916 60.2146 13.036C60.0866 13.332 59.9066 13.58 59.6746 13.78C59.4426 13.98 59.1866 14.08 58.9066 14.08C58.6826 14.08 58.4906 14 58.3306 13.84C58.1786 13.68 58.1026 13.464 58.1026 13.192C58.1026 13.04 58.1106 12.876 58.1266 12.7C58.1426 12.572 58.1506 12.484 58.1506 12.436C58.1506 12.372 58.1346 12.324 58.1026 12.292C58.0786 12.26 58.0466 12.244 58.0066 12.244C57.8946 12.244 57.7426 12.38 57.5506 12.652C57.3586 12.916 57.1666 13.268 56.9746 13.708C56.7826 14.148 56.6266 14.612 56.5066 15.1C56.4186 15.484 56.3186 15.74 56.2066 15.868C56.0946 15.996 55.9106 16.06 55.6546 16.06C55.3506 16.06 55.1346 15.9 55.0066 15.58C54.8866 15.26 54.8266 14.748 54.8266 14.044C54.8266 13.004 54.9746 12.016 55.2706 11.08C55.3426 10.848 55.4586 10.68 55.6186 10.576C55.7866 10.464 56.0186 10.408 56.3146 10.408C56.4746 10.408 56.5866 10.428 56.6506 10.468C56.7146 10.508 56.7466 10.584 56.7466 10.696C56.7466 10.824 56.6866 11.112 56.5666 11.56C56.4866 11.88 56.4226 12.16 56.3746 12.4C56.3266 12.64 56.2866 12.936 56.2546 13.288C56.5186 12.6 56.8146 12.04 57.1426 11.608C57.4706 11.176 57.7906 10.868 58.1026 10.684C58.4146 10.5 58.6986 10.408 58.9546 10.408C59.1866 10.408 59.3626 10.476 59.4826 10.612C59.6106 10.74 59.6746 10.932 59.6746 11.188C59.6746 11.34 59.6306 11.628 59.5426 12.052H59.6506Z" fill="white"/>
</svg>
