<svg width="76" height="25" viewBox="0 0 76 25" fill="none" xmlns="http://www.w3.org/2000/svg">
<rect width="76" height="25" rx="5" fill="#32D74B"/>
<path d="M10.534 8.24691V16.0869H9.022V8.24691H10.534ZM15.8527 16.2409C14.7887 16.2409 13.9674 15.9842 13.3887 15.4709C12.8194 14.9482 12.5347 14.1782 12.5347 13.1609V8.24691H14.0467V13.1609C14.0467 13.7396 14.2007 14.1922 14.5087 14.5189C14.8167 14.8362 15.2647 14.9949 15.8527 14.9949C16.4407 14.9949 16.8887 14.8362 17.1967 14.5189C17.5047 14.1922 17.6587 13.7396 17.6587 13.1609V5.58691H19.1707V13.1609C19.1707 14.1782 18.8814 14.9482 18.3027 15.4709C17.7334 15.9842 16.9167 16.2409 15.8527 16.2409ZM11.6283 7.21091V6.03491H16.9343V7.21091H11.6283ZM26.6083 16.0869V11.3829C26.6083 10.7856 26.4403 10.2956 26.1043 9.91291C25.7776 9.53025 25.297 9.33891 24.6623 9.33891C23.9063 9.33891 23.323 9.60025 22.9123 10.1229C22.5016 10.6456 22.2963 11.3596 22.2963 12.2649C22.2963 12.7689 22.3523 13.1936 22.4643 13.5389C22.5763 13.8749 22.721 14.1502 22.8983 14.3649C23.0756 14.5702 23.2716 14.7196 23.4863 14.8129C23.7103 14.8969 23.9296 14.9389 24.1443 14.9389C24.331 14.9389 24.5036 14.9296 24.6623 14.9109C24.821 14.8829 24.9796 14.8316 25.1383 14.7569L25.4183 15.8909C25.241 15.9842 25.0356 16.0542 24.8023 16.1009C24.5783 16.1569 24.3216 16.1849 24.0323 16.1849C23.6123 16.1849 23.2063 16.1102 22.8143 15.9609C22.4223 15.8022 22.0723 15.5642 21.7643 15.2469C21.4656 14.9202 21.2276 14.5096 21.0503 14.0149C20.873 13.5202 20.7843 12.9369 20.7843 12.2649C20.7843 11.6769 20.8636 11.1309 21.0223 10.6269C21.1903 10.1136 21.433 9.67025 21.7503 9.29691C22.077 8.92358 22.4783 8.62958 22.9543 8.41491C23.4396 8.20025 23.995 8.09291 24.6203 8.09291C25.199 8.09291 25.7076 8.18158 26.1463 8.35891C26.585 8.52691 26.949 8.76025 27.2383 9.05891C27.537 9.35758 27.7563 9.70758 27.8963 10.1089C28.0456 10.5102 28.1203 10.9396 28.1203 11.3969V16.0869H26.6083ZM33.339 16.2409C32.275 16.2409 31.4537 15.9842 30.875 15.4709C30.3057 14.9482 30.021 14.1782 30.021 13.1609V8.24691H31.533V13.1609C31.533 13.7396 31.687 14.1922 31.995 14.5189C32.303 14.8362 32.751 14.9949 33.339 14.9949C33.927 14.9949 34.375 14.8362 34.683 14.5189C34.991 14.1922 35.145 13.7396 35.145 13.1609V8.24691H36.657V13.1609C36.657 14.1782 36.3677 14.9482 35.789 15.4709C35.2197 15.9842 34.403 16.2409 33.339 16.2409ZM40.8466 15.0089C41.4066 15.0089 41.8313 14.9202 42.1206 14.7429C42.4193 14.5562 42.5686 14.2996 42.5686 13.9729C42.5686 13.7956 42.5126 13.6416 42.4006 13.5109C42.298 13.3709 42.158 13.2496 41.9806 13.1469C41.8033 13.0349 41.6073 12.9416 41.3926 12.8669C41.178 12.7922 40.9586 12.7176 40.7346 12.6429C40.38 12.5309 40.0486 12.4096 39.7406 12.2789C39.4326 12.1482 39.1666 11.9896 38.9426 11.8029C38.7186 11.6162 38.5413 11.3922 38.4106 11.1309C38.28 10.8696 38.2146 10.5522 38.2146 10.1789C38.2146 9.87091 38.2846 9.59091 38.4246 9.33891C38.5646 9.07758 38.7606 8.85825 39.0126 8.68091C39.274 8.49425 39.5866 8.34958 39.9506 8.24691C40.3146 8.14425 40.716 8.09291 41.1546 8.09291C41.668 8.09291 42.144 8.14891 42.5826 8.26091C43.0213 8.37291 43.418 8.52225 43.7726 8.70891L43.3806 9.82891C43.054 9.65158 42.718 9.52558 42.3726 9.45091C42.0273 9.37625 41.654 9.33891 41.2526 9.33891C40.7766 9.33891 40.394 9.41358 40.1046 9.56291C39.8246 9.71225 39.6846 9.92225 39.6846 10.1929C39.6846 10.3516 39.7266 10.4916 39.8106 10.6129C39.904 10.7249 40.0253 10.8276 40.1746 10.9209C40.324 11.0142 40.5013 11.1029 40.7066 11.1869C40.912 11.2616 41.136 11.3362 41.3786 11.4109C41.7986 11.5509 42.172 11.6956 42.4986 11.8449C42.8253 11.9942 43.1006 12.1716 43.3246 12.3769C43.558 12.5729 43.7353 12.8062 43.8566 13.0769C43.978 13.3476 44.0386 13.6649 44.0386 14.0289C44.0386 14.6822 43.782 15.2142 43.2686 15.6249C42.7646 16.0356 41.99 16.2409 40.9446 16.2409C39.8433 16.2409 38.9473 16.0402 38.2566 15.6389L38.6206 14.4769C38.938 14.6356 39.2833 14.7662 39.6566 14.8689C40.0393 14.9622 40.436 15.0089 40.8466 15.0089ZM37.4726 7.21091V6.03491H43.6606V7.21091H37.4726ZM50.7306 16.0869V11.1869C50.7306 10.5709 50.5673 10.1089 50.2406 9.80091C49.9233 9.49291 49.4706 9.33891 48.8826 9.33891C48.6493 9.33891 48.4253 9.36691 48.2106 9.42291C47.996 9.47891 47.7953 9.55825 47.6086 9.66091C47.4313 9.76358 47.2726 9.88491 47.1326 10.0249C47.002 10.1556 46.904 10.2956 46.8386 10.4449L47.9586 11.4249C47.688 11.5369 47.4826 11.6956 47.3426 11.9009C47.212 12.1062 47.1466 12.3722 47.1466 12.6989V16.0869H45.6346V12.7829C45.6346 12.5029 45.7 12.2462 45.8306 12.0129C45.9706 11.7702 46.1526 11.5836 46.3766 11.4529L45.2426 10.5009C45.3266 10.1929 45.476 9.89425 45.6906 9.60491C45.9146 9.31558 46.1853 9.05891 46.5026 8.83491C46.82 8.61091 47.1793 8.43358 47.5806 8.30291C47.9913 8.16291 48.43 8.09291 48.8966 8.09291C49.438 8.09291 49.9186 8.17225 50.3386 8.33091C50.7586 8.48025 51.1086 8.69025 51.3886 8.96091C51.6686 9.23158 51.8786 9.55825 52.0186 9.94091C52.168 10.3142 52.2426 10.7296 52.2426 11.1869V16.0869H50.7306ZM57.4686 16.0869V11.0469C57.4686 9.90825 56.9786 9.33891 55.9986 9.33891C55.5692 9.33891 55.1539 9.41825 54.7526 9.57691C54.3606 9.73558 54.0152 9.92225 53.7166 10.1369L53.3246 9.03091C53.6512 8.78825 54.0666 8.57358 54.5706 8.38691C55.0746 8.19091 55.5972 8.09291 56.1386 8.09291C57.0719 8.09291 57.7766 8.35891 58.2526 8.89091C58.7379 9.42291 58.9806 10.1602 58.9806 11.1029V16.0869H57.4686ZM63.1728 15.0089C63.7328 15.0089 64.1575 14.9202 64.4468 14.7429C64.7455 14.5562 64.8948 14.2996 64.8948 13.9729C64.8948 13.7956 64.8388 13.6416 64.7268 13.5109C64.6241 13.3709 64.4841 13.2496 64.3068 13.1469C64.1295 13.0349 63.9335 12.9416 63.7188 12.8669C63.5041 12.7922 63.2848 12.7176 63.0608 12.6429C62.7061 12.5309 62.3748 12.4096 62.0668 12.2789C61.7588 12.1482 61.4928 11.9896 61.2688 11.8029C61.0448 11.6162 60.8675 11.3922 60.7368 11.1309C60.6061 10.8696 60.5408 10.5522 60.5408 10.1789C60.5408 9.87091 60.6108 9.59091 60.7508 9.33891C60.8908 9.07758 61.0868 8.85825 61.3388 8.68091C61.6001 8.49425 61.9128 8.34958 62.2768 8.24691C62.6408 8.14425 63.0421 8.09291 63.4808 8.09291C63.9941 8.09291 64.4701 8.14891 64.9088 8.26091C65.3475 8.37291 65.7441 8.52225 66.0988 8.70891L65.7068 9.82891C65.3801 9.65158 65.0441 9.52558 64.6988 9.45091C64.3535 9.37625 63.9801 9.33891 63.5788 9.33891C63.1028 9.33891 62.7201 9.41358 62.4308 9.56291C62.1508 9.71225 62.0108 9.92225 62.0108 10.1929C62.0108 10.3516 62.0528 10.4916 62.1368 10.6129C62.2301 10.7249 62.3515 10.8276 62.5008 10.9209C62.6501 11.0142 62.8275 11.1029 63.0328 11.1869C63.2381 11.2616 63.4621 11.3362 63.7048 11.4109C64.1248 11.5509 64.4981 11.6956 64.8248 11.8449C65.1515 11.9942 65.4268 12.1716 65.6508 12.3769C65.8841 12.5729 66.0615 12.8062 66.1828 13.0769C66.3041 13.3476 66.3648 13.6649 66.3648 14.0289C66.3648 14.6822 66.1081 15.2142 65.5948 15.6249C65.0908 16.0356 64.3161 16.2409 63.2708 16.2409C62.1695 16.2409 61.2735 16.0402 60.5828 15.6389L60.9468 14.4769C61.2641 14.6356 61.6095 14.7662 61.9828 14.8689C62.3655 14.9622 62.7621 15.0089 63.1728 15.0089Z" fill="white"/>
</svg>
