<svg width="76" height="25" viewBox="0 0 76 25" fill="none" xmlns="http://www.w3.org/2000/svg">
<rect width="76" height="25" rx="5" fill="#ED4C5C"/>
<path d="M24.522 9.656C24.522 10.4493 24.3167 11.1773 23.906 11.84C23.4953 12.5027 22.898 13.044 22.114 13.464C21.33 13.884 20.3967 14.1313 19.314 14.206L18.712 17.58C18.4787 18.8773 17.844 19.526 16.808 19.526C16.2387 19.526 15.7113 19.358 15.226 19.022C14.75 18.686 14.3673 18.1727 14.078 17.482C13.7887 16.7913 13.644 15.942 13.644 14.934C13.644 13.0393 13.9473 11.434 14.554 10.118C15.17 8.79267 15.9913 7.80333 17.018 7.15C18.054 6.48733 19.1927 6.156 20.434 6.156C21.3113 6.156 22.0533 6.31 22.66 6.618C23.276 6.926 23.738 7.346 24.046 7.878C24.3633 8.40067 24.522 8.99333 24.522 9.656ZM19.566 12.764C21.4793 12.5213 22.436 11.5273 22.436 9.782C22.436 9.166 22.2307 8.66667 21.82 8.284C21.4187 7.892 20.7933 7.696 19.944 7.696C18.9827 7.696 18.1427 7.99933 17.424 8.606C16.7147 9.21267 16.164 10.0573 15.772 11.14C15.3893 12.2133 15.198 13.4407 15.198 14.822C15.198 15.4007 15.254 15.914 15.366 16.362C15.4873 16.81 15.6367 17.16 15.814 17.412C16.0007 17.6547 16.178 17.776 16.346 17.776C16.5793 17.776 16.7567 17.454 16.878 16.81L17.34 14.164C16.976 14.108 16.8173 14.0847 16.864 14.094C16.584 14.0473 16.402 13.9633 16.318 13.842C16.234 13.7113 16.192 13.548 16.192 13.352C16.192 13.1467 16.248 12.9833 16.36 12.862C16.4813 12.7407 16.6447 12.68 16.85 12.68C16.9433 12.68 17.0133 12.6847 17.06 12.694C17.284 12.7313 17.4567 12.7547 17.578 12.764C17.6993 12.036 17.872 11.0607 18.096 9.838C18.152 9.52067 18.278 9.29667 18.474 9.166C18.6793 9.026 18.9173 8.956 19.188 8.956C19.496 8.956 19.7153 9.01667 19.846 9.138C19.986 9.25 20.056 9.432 20.056 9.684C20.056 9.83333 20.0467 9.95467 20.028 10.048L19.566 12.764ZM31.3804 13.702C31.5017 13.702 31.595 13.7627 31.6604 13.884C31.7257 14.0053 31.7584 14.1593 31.7584 14.346C31.7584 14.794 31.623 15.06 31.3524 15.144C30.7924 15.34 30.1764 15.452 29.5044 15.48C29.327 16.264 28.977 16.894 28.4544 17.37C27.9317 17.8367 27.339 18.07 26.6764 18.07C26.1164 18.07 25.6357 17.9347 25.2344 17.664C24.8424 17.3933 24.5437 17.034 24.3384 16.586C24.133 16.138 24.0304 15.6527 24.0304 15.13C24.0304 14.4207 24.1657 13.7907 24.4364 13.24C24.707 12.68 25.0804 12.246 25.5564 11.938C26.0324 11.6207 26.5597 11.462 27.1384 11.462C27.8477 11.462 28.417 11.7093 28.8464 12.204C29.285 12.6893 29.5417 13.2913 29.6164 14.01C30.055 13.982 30.5777 13.8887 31.1844 13.73C31.259 13.7113 31.3244 13.702 31.3804 13.702ZM26.7884 16.586C27.087 16.586 27.3437 16.4647 27.5584 16.222C27.7824 15.9793 27.9317 15.6293 28.0064 15.172C27.717 14.976 27.493 14.7193 27.3344 14.402C27.185 14.0847 27.1104 13.7487 27.1104 13.394C27.1104 13.2447 27.1244 13.0953 27.1524 12.946H27.0824C26.709 12.946 26.3964 13.128 26.1444 13.492C25.9017 13.8467 25.7804 14.3507 25.7804 15.004C25.7804 15.5173 25.8784 15.9093 26.0744 16.18C26.2797 16.4507 26.5177 16.586 26.7884 16.586ZM38.0328 14.878C38.1541 14.878 38.2474 14.934 38.3128 15.046C38.3874 15.158 38.4248 15.312 38.4248 15.508C38.4248 15.8813 38.3361 16.1707 38.1588 16.376C37.7574 16.8707 37.3234 17.2767 36.8568 17.594C36.3994 17.9113 35.8768 18.07 35.2888 18.07C34.7941 18.07 34.3928 17.8927 34.0848 17.538C33.5528 17.8833 32.9974 18.0607 32.4188 18.07C32.2974 19.8713 32.0221 21.374 31.5928 22.578C31.1634 23.7913 30.5334 24.398 29.7028 24.398C29.1988 24.398 28.8254 24.216 28.5828 23.852C28.3401 23.488 28.2188 22.984 28.2188 22.34C28.2188 21.4253 28.4288 20.3567 28.8488 19.134C29.2688 17.9207 29.9174 16.5813 30.7948 15.116C30.7948 13.7533 30.7854 12.806 30.7668 12.274C30.7574 12.0033 30.8648 11.7887 31.0888 11.63C31.3128 11.4713 31.5928 11.392 31.9288 11.392C32.1248 11.392 32.2648 11.434 32.3488 11.518C32.4421 11.5927 32.4934 11.7467 32.5028 11.98C32.5028 12.2133 32.5074 12.386 32.5168 12.498C32.8154 12.1247 33.1094 11.8587 33.3988 11.7C33.6881 11.532 33.9961 11.448 34.3228 11.448C34.8454 11.448 35.2701 11.658 35.5968 12.078C35.9328 12.498 36.1008 13.0487 36.1008 13.73C36.1008 14.2247 36.0214 14.7053 35.8628 15.172C35.7041 15.6387 35.4848 16.0633 35.2048 16.446C35.4008 16.502 35.5641 16.53 35.6948 16.53C36.0028 16.53 36.2968 16.418 36.5768 16.194C36.8568 15.97 37.2161 15.5967 37.6548 15.074C37.7668 14.9433 37.8928 14.878 38.0328 14.878ZM32.4888 16.726C32.8248 16.6513 33.1328 16.4693 33.4128 16.18C33.7021 15.8813 33.9308 15.5173 34.0988 15.088C34.2668 14.6493 34.3508 14.192 34.3508 13.716C34.3508 13.436 34.2948 13.226 34.1828 13.086C34.0708 12.9367 33.9214 12.862 33.7348 12.862C33.3988 12.862 32.9928 13.2167 32.5168 13.926C32.5074 14.3367 32.5028 14.9387 32.5028 15.732C32.5028 16.1613 32.4981 16.4927 32.4888 16.726ZM29.8148 23.026C30.0668 23.026 30.2768 22.4753 30.4448 21.374C30.6128 20.282 30.7201 18.9193 30.7668 17.286C30.3654 18.2193 30.0481 19.1107 29.8148 19.96C29.5814 20.8093 29.4648 21.5233 29.4648 22.102C29.4648 22.4007 29.5021 22.6293 29.5768 22.788C29.6421 22.9467 29.7214 23.026 29.8148 23.026ZM38.725 18.07C38.305 18.07 37.9597 17.8787 37.689 17.496C37.4277 17.104 37.297 16.6187 37.297 16.04C37.297 15.34 37.3437 14.7007 37.437 14.122C37.5303 13.534 37.6843 12.9133 37.899 12.26C37.9923 11.98 38.123 11.7793 38.291 11.658C38.459 11.5367 38.725 11.476 39.089 11.476C39.2943 11.476 39.4343 11.5087 39.509 11.574C39.593 11.6393 39.635 11.7373 39.635 11.868C39.635 11.9427 39.5837 12.1947 39.481 12.624C39.3877 12.9693 39.313 13.282 39.257 13.562C39.0703 14.542 38.977 15.1953 38.977 15.522C38.977 15.718 39.0003 15.858 39.047 15.942C39.0937 16.0167 39.1683 16.054 39.271 16.054C39.411 16.054 39.5837 15.914 39.789 15.634C40.0037 15.354 40.2277 14.9293 40.461 14.36C40.7037 13.7907 40.937 13.0907 41.161 12.26C41.2357 11.98 41.3477 11.7793 41.497 11.658C41.6557 11.5367 41.889 11.476 42.197 11.476C42.4117 11.476 42.561 11.504 42.645 11.56C42.729 11.6067 42.771 11.7 42.771 11.84C42.771 12.0733 42.6543 12.7127 42.421 13.758C42.1597 14.9527 42.029 15.69 42.029 15.97C42.029 16.1473 42.0663 16.2873 42.141 16.39C42.2157 16.4833 42.3137 16.53 42.435 16.53C42.6217 16.53 42.841 16.418 43.093 16.194C43.3543 15.9607 43.6997 15.5873 44.129 15.074C44.241 14.9433 44.367 14.878 44.507 14.878C44.6283 14.878 44.7217 14.934 44.787 15.046C44.8617 15.158 44.899 15.312 44.899 15.508C44.899 15.8813 44.8103 16.1707 44.633 16.376C44.2317 16.8707 43.7977 17.2767 43.331 17.594C42.8737 17.9113 42.351 18.07 41.763 18.07C41.315 18.07 40.9837 17.8973 40.769 17.552C40.5637 17.2067 40.461 16.7213 40.461 16.096C40.3023 16.7307 40.0643 17.2207 39.747 17.566C39.4297 17.902 39.089 18.07 38.725 18.07ZM49.0698 14.878C49.1911 14.878 49.2845 14.934 49.3498 15.046C49.4245 15.158 49.4618 15.312 49.4618 15.508C49.4618 15.8813 49.3731 16.1707 49.1958 16.376C48.7945 16.8707 48.3558 17.2767 47.8798 17.594C47.4131 17.9113 46.8811 18.07 46.2838 18.07C45.4625 18.07 44.8511 17.6967 44.4498 16.95C44.0578 16.2033 43.8618 15.2373 43.8618 14.052C43.8618 12.9133 44.0065 11.616 44.2958 10.16C44.5945 8.704 45.0285 7.45333 45.5978 6.408C46.1765 5.36267 46.8625 4.84 47.6558 4.84C48.1038 4.84 48.4538 5.05 48.7058 5.47C48.9671 5.88067 49.0978 6.47333 49.0978 7.248C49.0978 8.35867 48.7898 9.64667 48.1738 11.112C47.5578 12.5773 46.7225 14.0287 45.6678 15.466C45.7331 15.8487 45.8405 16.124 45.9898 16.292C46.1391 16.4507 46.3351 16.53 46.5778 16.53C46.9605 16.53 47.2965 16.4227 47.5858 16.208C47.8751 15.984 48.2438 15.606 48.6918 15.074C48.8038 14.9433 48.9298 14.878 49.0698 14.878ZM47.3478 6.226C47.1331 6.226 46.8905 6.61333 46.6198 7.388C46.3491 8.16267 46.1111 9.124 45.9058 10.272C45.7005 11.42 45.5885 12.5213 45.5698 13.576C46.2325 12.484 46.7598 11.392 47.1518 10.3C47.5438 9.19867 47.7398 8.19533 47.7398 7.29C47.7398 6.58067 47.6091 6.226 47.3478 6.226ZM49.9155 18.07C49.3368 18.07 48.8748 17.86 48.5295 17.44C48.1842 17.02 48.0115 16.4693 48.0115 15.788C48.0115 15.0413 48.1842 14.3367 48.5295 13.674C48.8748 13.002 49.3322 12.4653 49.9015 12.064C50.4802 11.6533 51.0915 11.448 51.7355 11.448C51.9408 11.448 52.0762 11.49 52.1415 11.574C52.2162 11.6487 52.2768 11.7887 52.3235 11.994C52.5195 11.9567 52.7248 11.938 52.9395 11.938C53.3968 11.938 53.6255 12.1013 53.6255 12.428C53.6255 12.624 53.5555 13.0907 53.4155 13.828C53.2008 14.9013 53.0935 15.648 53.0935 16.068C53.0935 16.208 53.1262 16.32 53.1915 16.404C53.2662 16.488 53.3595 16.53 53.4715 16.53C53.6488 16.53 53.8635 16.418 54.1155 16.194C54.3675 15.9607 54.7082 15.5873 55.1375 15.074C55.2495 14.9433 55.3755 14.878 55.5155 14.878C55.6368 14.878 55.7302 14.934 55.7955 15.046C55.8702 15.158 55.9075 15.312 55.9075 15.508C55.9075 15.8813 55.8188 16.1707 55.6415 16.376C55.2588 16.852 54.8528 17.2533 54.4235 17.58C53.9942 17.9067 53.5788 18.07 53.1775 18.07C52.8695 18.07 52.5848 17.9673 52.3235 17.762C52.0715 17.5473 51.8802 17.258 51.7495 16.894C51.2642 17.678 50.6528 18.07 49.9155 18.07ZM50.4195 16.656C50.6248 16.656 50.8208 16.5347 51.0075 16.292C51.1942 16.0493 51.3295 15.7273 51.4135 15.326L51.9315 12.75C51.5395 12.7593 51.1755 12.9087 50.8395 13.198C50.5128 13.478 50.2515 13.8513 50.0555 14.318C49.8595 14.7847 49.7615 15.2793 49.7615 15.802C49.7615 16.0913 49.8175 16.306 49.9295 16.446C50.0508 16.586 50.2142 16.656 50.4195 16.656ZM60.4257 13.394C60.631 13.394 60.8037 13.4687 60.9437 13.618C61.093 13.758 61.1677 13.9353 61.1677 14.15C61.1677 14.2713 61.1397 14.402 61.0837 14.542C60.9343 14.8873 60.7243 15.1767 60.4537 15.41C60.183 15.6433 59.8843 15.76 59.5577 15.76C59.2963 15.76 59.0723 15.6667 58.8857 15.48C58.7083 15.2933 58.6197 15.0413 58.6197 14.724C58.6197 14.5467 58.629 14.3553 58.6477 14.15C58.6663 14.0007 58.6757 13.898 58.6757 13.842C58.6757 13.7673 58.657 13.7113 58.6197 13.674C58.5917 13.6367 58.5543 13.618 58.5077 13.618C58.377 13.618 58.1997 13.7767 57.9757 14.094C57.7517 14.402 57.5277 14.8127 57.3037 15.326C57.0797 15.8393 56.8977 16.3807 56.7577 16.95C56.655 17.398 56.5383 17.6967 56.4077 17.846C56.277 17.9953 56.0623 18.07 55.7637 18.07C55.409 18.07 55.157 17.8833 55.0077 17.51C54.8677 17.1367 54.7977 16.5393 54.7977 15.718C54.7977 14.5047 54.9703 13.352 55.3157 12.26C55.3997 11.9893 55.535 11.7933 55.7217 11.672C55.9177 11.5413 56.1883 11.476 56.5337 11.476C56.7203 11.476 56.851 11.4993 56.9257 11.546C57.0003 11.5927 57.0377 11.6813 57.0377 11.812C57.0377 11.9613 56.9677 12.2973 56.8277 12.82C56.7343 13.1933 56.6597 13.52 56.6037 13.8C56.5477 14.08 56.501 14.4253 56.4637 14.836C56.7717 14.0333 57.117 13.38 57.4997 12.876C57.8823 12.372 58.2557 12.0127 58.6197 11.798C58.9837 11.5833 59.315 11.476 59.6137 11.476C59.8843 11.476 60.0897 11.5553 60.2297 11.714C60.379 11.8633 60.4537 12.0873 60.4537 12.386C60.4537 12.5633 60.4023 12.8993 60.2997 13.394H60.4257Z" fill="white"/>
</svg>
