<svg width="49" height="41" viewBox="0 0 49 41" fill="none" xmlns="http://www.w3.org/2000/svg">
<path d="M24.8315 34.1552L39.1499 37.1987C40.1567 37.4127 41.0783 37.2481 41.9148 36.7049C42.7512 36.1617 43.2764 35.3867 43.4904 34.38L48.0556 12.9024C48.2696 11.8956 48.105 10.974 47.5618 10.1375C47.0186 9.30109 46.2437 8.77587 45.2369 8.56188L30.9185 5.51841C29.9117 5.30441 28.9901 5.46901 28.1537 6.01221C27.3172 6.5554 26.792 7.33038 26.578 8.33714L22.0128 29.8148C21.7988 30.8215 21.9634 31.7431 22.5066 32.5796C23.0498 33.416 23.8248 33.9412 24.8315 34.1552ZM28.983 8.84835C29.1495 8.06531 29.6242 7.75701 30.4073 7.92345L44.7257 10.9669C45.5087 11.1334 45.817 11.6081 45.6506 12.3911L41.0854 33.8688C40.9189 34.6518 40.4442 34.9601 39.6612 34.7937L25.3427 31.7502C24.5597 31.5838 24.2514 31.109 24.4178 30.326L28.983 8.84835ZM38.6138 22.1194L36.0447 16.6044L31.4546 20.5977L34.0237 26.1127L38.6138 22.1194Z" fill="url(#paint0_linear)"/>
<rect x="0.897949" y="6.81909" width="28" height="34" transform="rotate(-12 0.897949 6.81909)" fill="#161A26"/>
<path d="M12.3738 34.2018L26.6922 31.1584C27.699 30.9444 28.474 30.4191 29.0172 29.5827C29.5604 28.7463 29.725 27.8246 29.511 26.8179L24.9458 5.34026C24.7318 4.3335 24.2066 3.55852 23.3701 3.01532C22.5337 2.47213 21.6121 2.30753 20.6053 2.52153L6.28688 5.565C5.28012 5.77899 4.50514 6.30421 3.96194 7.14066C3.41875 7.9771 3.25415 8.89871 3.46814 9.90547L8.03335 31.3831C8.24735 32.3899 8.77257 33.1648 9.60901 33.708C10.4455 34.2512 11.3671 34.4158 12.3738 34.2018ZM5.87319 9.39426C5.70675 8.61122 6.01505 8.13648 6.79809 7.97004L21.1165 4.92657C21.8995 4.76013 22.3743 5.06843 22.5407 5.85147L27.1059 27.3291C27.2724 28.1121 26.9641 28.5869 26.181 28.7533L11.8626 31.7968C11.0796 31.9632 10.6048 31.6549 10.4384 30.8719L5.87319 9.39426ZM14.5957 21.2779C15.0432 21.1828 15.4256 20.9651 15.743 20.6249L16.3255 23.3655L15.095 23.627L15.3566 24.8575L20.1667 23.8351L19.9051 22.6046L18.6746 22.8662L18.0921 20.1255C18.5205 20.3073 18.9584 20.3506 19.4058 20.2555C20.0397 20.1208 20.5382 19.7615 20.9012 19.1777C21.2643 18.5939 21.3785 17.985 21.2437 17.3511C21.109 16.7173 20.7571 16.2075 20.1879 15.8218C19.6188 15.4362 19.0173 15.3107 18.3834 15.4454C18.2487 14.8115 17.8894 14.3131 17.3056 13.95C16.7218 13.5869 16.1129 13.4728 15.479 13.6075C14.8451 13.7423 14.3354 14.0942 13.9497 14.6633C13.564 15.2324 13.4386 15.834 13.5733 16.4678C12.9394 16.6026 12.4409 16.9618 12.0779 17.5457C11.7148 18.1295 11.6007 18.7383 11.7354 19.3722C11.8701 20.0061 12.2221 20.5159 12.7912 20.9015C13.3603 21.2872 13.9618 21.4127 14.5957 21.2779Z" fill="url(#paint1_linear)"/>
<defs>
<linearGradient id="paint0_linear" x1="38.0777" y1="7.04014" x2="31.9907" y2="35.677" gradientUnits="userSpaceOnUse">
<stop stop-color="#1C84C6"/>
<stop offset="1" stop-color="#64D2FF"/>
</linearGradient>
<linearGradient id="paint1_linear" x1="13.4461" y1="4.04326" x2="19.533" y2="32.6801" gradientUnits="userSpaceOnUse">
<stop stop-color="#1C84C6"/>
<stop offset="1" stop-color="#64D2FF"/>
</linearGradient>
</defs>
</svg>
