<svg width="29" height="29" viewBox="0 0 29 29" fill="none" xmlns="http://www.w3.org/2000/svg">
<circle cx="14.4117" cy="14.1471" r="13.6471" stroke="white"/>
<rect x="3.02515" y="13.8021" width="0.6901" height="2.7604" transform="rotate(-90 3.02515 13.8021)" fill="white"/>
<rect x="4.40527" y="6.69878" width="0.6901" height="2.7604" transform="rotate(-45 4.40527 6.69878)" fill="white"/>
<rect width="0.6901" height="2.0703" transform="matrix(-1 0 0 1 11.3064 4.14066)" fill="white"/>
<path d="M10.8463 21.4755H8.87832V23.3235H8.36232V19.2795H8.87832V20.9955H10.8463V19.2795H11.3623V23.3235H10.8463V21.4755ZM15.4913 21.2955C15.4913 21.9595 15.3233 22.4635 14.9873 22.8075C14.6553 23.1515 14.1593 23.3235 13.4993 23.3235H12.3233V19.2795H13.4993C14.1593 19.2795 14.6553 19.4495 14.9873 19.7895C15.3233 20.1295 15.4913 20.6315 15.4913 21.2955ZM14.9753 21.2955C14.9753 20.7435 14.8473 20.3495 14.5913 20.1135C14.3393 19.8775 13.9753 19.7595 13.4993 19.7595H12.8393V22.8435H13.4993C13.9753 22.8435 14.3393 22.7235 14.5913 22.4835C14.8473 22.2435 14.9753 21.8475 14.9753 21.2955ZM19.033 20.4915C19.033 20.6315 19.011 20.7655 18.967 20.8935C18.927 21.0175 18.867 21.1315 18.787 21.2355C18.707 21.3395 18.609 21.4295 18.493 21.5055C18.381 21.5815 18.253 21.6395 18.109 21.6795L19.069 23.3235H18.505L17.581 21.7335H16.765V23.3235H16.249V19.2795H17.695C17.907 19.2795 18.095 19.3115 18.259 19.3755C18.427 19.4395 18.567 19.5255 18.679 19.6335C18.795 19.7415 18.883 19.8695 18.943 20.0175C19.003 20.1655 19.033 20.3235 19.033 20.4915ZM18.517 20.4915C18.517 20.2675 18.447 20.0895 18.307 19.9575C18.167 19.8255 17.963 19.7595 17.695 19.7595H16.765V21.2535H17.659C17.927 21.2535 18.137 21.1855 18.289 21.0495C18.441 20.9095 18.517 20.7235 18.517 20.4915Z" fill="white"/>
<circle cx="11.6513" cy="12.7668" r="5.17575" fill="white"/>
<circle cx="17.1721" cy="12.7668" r="4.67575" stroke="url(#paint0_linear)"/>
<defs>
<linearGradient id="paint0_linear" x1="22.3478" y1="12.4218" x2="11.9963" y2="12.0767" gradientUnits="userSpaceOnUse">
<stop offset="0.619792" stop-color="white"/>
<stop offset="1"/>
</linearGradient>
</defs>
</svg>
