<svg width="34" height="27" viewBox="0 0 34 27" fill="none" xmlns="http://www.w3.org/2000/svg">
<path d="M26.3998 15.1738L24.5206 11.0871L21.1632 14.0462L23.0424 18.1329L26.3998 15.1738Z" fill="#FAD131"/>
<path d="M16.3188 24.0926L26.7919 26.3479C27.5283 26.5065 28.2024 26.3845 28.8142 25.982C29.426 25.5794 29.8102 25.0052 29.9667 24.2591L33.3059 8.3438C33.4624 7.59777 33.342 6.91484 32.9447 6.29502C32.5474 5.67519 31.9806 5.286 31.2442 5.12742L20.7711 2.87215C20.0347 2.71357 19.3606 2.83555 18.7488 3.23806C18.6612 3.2957 18.5782 3.35685 18.5 3.42153L19.155 6.29502L19.3554 5.3397C19.4772 4.75946 19.8244 4.531 20.3972 4.65434L30.8702 6.90961C31.443 7.03294 31.6685 7.38474 31.5468 7.96498L28.2076 23.8803C28.0858 24.4606 27.7386 24.689 27.1658 24.5657L20.7711 23.1886L16.3188 24.0926Z" fill="#FAD131"/>
<path d="M7.20668 24.1271L17.6798 21.8718C18.4162 21.7132 18.983 21.3241 19.3803 20.7042C19.7776 20.0844 19.898 19.4015 19.7415 18.6554L16.4023 2.74011C16.2458 1.99407 15.8616 1.4198 15.2498 1.01728C14.638 0.614765 13.9639 0.492793 13.2275 0.651367L2.75444 2.90664C2.01805 3.06521 1.4512 3.45441 1.05389 4.07423C0.656571 4.69406 0.536176 5.37698 0.6927 6.12302L4.03188 22.0384C4.18841 22.7844 4.57257 23.3587 5.18438 23.7612C5.7962 24.1637 6.47029 24.2857 7.20668 24.1271ZM2.45185 5.7442C2.33011 5.16395 2.55561 4.81216 3.12836 4.68883L13.6014 2.43355C14.1742 2.31022 14.5214 2.53867 14.6432 3.11892L17.9824 19.0343C18.1041 19.6145 17.8786 19.9663 17.3058 20.0896L6.83276 22.3449C6.26002 22.4682 5.91277 22.2398 5.79103 21.6595L2.45185 5.7442ZM8.83187 14.5502C9.15915 14.4798 9.43887 14.3184 9.67103 14.0663L10.0971 16.0972L9.19709 16.291L9.3884 17.2028L12.9067 16.4452L12.7154 15.5333L11.8154 15.7272L11.3893 13.6963C11.7026 13.831 12.0229 13.8631 12.3502 13.7926C12.8138 13.6928 13.1784 13.4265 13.444 12.9939C13.7095 12.5613 13.793 12.1101 13.6945 11.6404C13.5959 11.1707 13.3385 10.7929 12.9222 10.5071C12.506 10.2214 12.066 10.1284 11.6023 10.2282C11.5038 9.75851 11.241 9.38913 10.814 9.12009C10.3869 8.85106 9.94161 8.76646 9.47796 8.8663C9.01431 8.96615 8.64144 9.22694 8.35934 9.64867C8.07725 10.0704 7.98548 10.5161 8.08403 10.9859C7.62038 11.0857 7.25578 11.3519 6.99022 11.7845C6.72466 12.2172 6.64116 12.6683 6.73971 13.1381C6.83826 13.6078 7.09568 13.9855 7.51197 14.2713C7.92825 14.5571 8.36822 14.6501 8.83187 14.5502Z" fill="#FAD131"/>
</svg>
