<svg width="27" height="27" viewBox="0 0 27 27" fill="none" xmlns="http://www.w3.org/2000/svg">
<path d="M13.5 0.84375C6.51037 0.84375 0.84375 6.51037 0.84375 13.5C0.84375 20.4896 6.51037 26.1562 13.5 26.1562C20.4896 26.1562 26.1562 20.4896 26.1562 13.5C26.1562 6.51037 20.4896 0.84375 13.5 0.84375ZM7.59375 7.05502L9.54239 6.32812H10.9688V12.2344H9.30445V7.55494H9.28125L7.87641 8.09114L7.59375 7.05502ZM9.79045 20.6719C9.01758 20.6719 8.36578 20.4782 8.01562 20.2673L8.30081 19.2653C8.54803 19.3881 9.11967 19.6163 9.6892 19.6163C10.4144 19.6163 10.7827 19.2835 10.7827 18.8523C10.7827 18.2895 10.1942 18.0343 9.57825 18.0343H9.00872V17.0762H9.55167C10.0195 17.0678 10.6161 16.9016 10.6161 16.4177C10.6161 16.0747 10.3229 15.8203 9.73434 15.8203C9.2475 15.8203 8.73239 16.0224 8.48433 16.1633L8.19998 15.1959C8.55858 14.9766 9.27534 14.7656 10.0465 14.7656C11.3235 14.7656 12.0323 15.4073 12.0323 16.1886C12.0323 16.7957 11.6737 17.2703 10.938 17.5167V17.5331C11.656 17.6572 12.2344 18.1752 12.2344 18.9228C12.2344 19.9328 11.3067 20.6719 9.79045 20.6719ZM14.9766 11.413L15.7461 10.7333C17.0454 9.59892 17.6774 8.94628 17.6947 8.26706C17.6947 7.7933 17.4023 7.41741 16.716 7.41741C16.2034 7.41741 15.7553 7.668 15.4427 7.90088L15.0504 6.92677C15.4988 6.59559 16.1941 6.3277 16.999 6.3277C18.3444 6.3277 19.086 7.09552 19.086 8.1502C19.086 9.12431 18.3625 9.90183 17.5023 10.6528L16.9535 11.0987V11.1168H19.1953V12.2344H14.9766V11.413ZM19.4062 19.2637H18.6334V20.6719H17.202V19.2637H14.3438V18.3638L16.786 14.7656H18.6334V18.2271H19.4062V19.2637Z" fill="#FAD131"/>
<path d="M16.6172 16.9201L15.7537 18.2098V18.2271H17.2024V16.9201C17.2024 16.5641 17.2222 16.2017 17.2517 15.8195H17.2129C17.0045 16.2017 16.8353 16.5472 16.6172 16.9201Z" fill="#FAD131"/>
</svg>
