<svg width="30" height="29" viewBox="0 0 30 29" fill="none" xmlns="http://www.w3.org/2000/svg">
<path d="M21.5625 9.51563H15.9375V5.89063H26.25C26.6228 5.89022 26.9803 5.74687 27.2439 5.49203C27.5075 5.23718 27.6558 4.89165 27.6562 4.53125V0.90625H25.7812V4.07813H15.4688C15.0959 4.07853 14.7385 4.22188 14.4748 4.47672C14.2112 4.73157 14.0629 5.0771 14.0625 5.4375V9.51563H8.4375C6.44907 9.5178 4.54272 10.2823 3.13668 11.6415C1.73065 13.0007 0.939749 14.8435 0.9375 16.7656V22.4837C0.939097 23.8509 1.50167 25.1617 2.50179 26.1285C3.50191 27.0953 4.8579 27.6391 6.27228 27.6406H6.37775C7.16006 27.6416 7.93297 27.4759 8.64144 27.1552C9.3499 26.8344 9.97649 26.3666 10.4766 25.7851L13.5645 22.2031H16.4137L19.4996 26.081C20.179 26.9345 21.1177 27.5611 22.184 27.8727C23.2504 28.1843 24.3909 28.1654 25.4456 27.8186C26.5003 27.4719 27.4163 26.8146 28.0649 25.9391C28.7136 25.0636 29.0624 24.0137 29.0625 22.9368V16.7656C29.0603 14.8435 28.2694 13.0007 26.8633 11.6415C25.4573 10.2823 23.5509 9.5178 21.5625 9.51563ZM27.1875 22.9368C27.1875 23.6352 26.9612 24.3162 26.5406 24.884C26.1199 25.4519 25.5258 25.8781 24.8417 26.103C24.1577 26.3279 23.418 26.3402 22.7263 26.138C22.0347 25.9359 21.4259 25.5295 20.9854 24.9759L17.3366 20.3906H12.6859L9.03586 24.6247C8.71157 25.0019 8.30525 25.3052 7.84584 25.5132C7.38643 25.7212 6.88523 25.8287 6.37793 25.8281H6.27246C5.35515 25.8272 4.47569 25.4745 3.82704 24.8475C3.17839 24.2205 2.81352 23.3704 2.8125 22.4837V16.7656C2.81417 15.324 3.40735 13.9419 4.46187 12.9225C5.5164 11.9031 6.94617 11.3297 8.4375 11.3281H21.5625C23.0538 11.3297 24.4836 11.9031 25.5381 12.9225C26.5927 13.9419 27.1858 15.324 27.1875 16.7656V22.9368Z" fill="#FAD131"/>
<path d="M21.0938 14.0469H22.9688V15.8594H21.0938V14.0469Z" fill="#FAD131"/>
<path d="M21.0938 18.5781H22.9688V20.3906H21.0938V18.5781Z" fill="#FAD131"/>
<path d="M18.75 16.3125H20.625V18.125H18.75V16.3125Z" fill="#FAD131"/>
<path d="M23.4375 16.3125H25.3125V18.125H23.4375V16.3125Z" fill="#FAD131"/>
<path d="M8.90625 14.0469H7.03125V16.3125H4.6875V18.125H7.03125V20.3906H8.90625V18.125H11.25V16.3125H8.90625V14.0469Z" fill="#FAD131"/>
</svg>
