<svg width="34" height="27" viewBox="0 0 34 27" fill="none" xmlns="http://www.w3.org/2000/svg">
<path d="M28.9362 8.67402V2.89134C28.9362 2.12451 28.6313 1.38909 28.0887 0.846854C27.546 0.304622 26.81 0 26.0426 0H2.89362C1.30213 0 0.0144681 1.28665 0.0144681 2.89134V8.67402C1.60596 8.67402 2.89362 9.97512 2.89362 11.5654C2.89362 13.1556 1.60596 14.4567 0 14.4567V20.2394C0 21.8296 1.30213 23.1307 2.89362 23.1307H21.5L20.5 20.2394H2.89362V16.5674C4.61532 15.5699 5.78724 13.6905 5.78724 11.5654C5.78724 9.42577 4.62979 7.56086 2.90809 6.56334L2.89362 2.89134H26.0426V6.56334C24.3209 7.56086 23.1489 9.44023 23.1489 11.5654C23.1489 12.6146 23.4346 13.6039 23.931 14.4567L27 13.7094C26.4129 13.1793 26.0426 12.4135 26.0426 11.5654C26.0426 9.97512 27.3447 8.67402 28.9362 8.67402Z" fill="#FAD131"/>
<path d="M26.9787 27C23.1009 27 19.9575 23.8591 19.9575 19.9843C19.9575 16.1095 23.1009 12.9685 26.9787 12.9685C30.8566 12.9685 34 16.1095 34 19.9843C34 23.8591 30.8566 27 26.9787 27ZM26.9787 25.5969C28.4685 25.5969 29.8972 25.0055 30.9506 23.953C32.004 22.9004 32.5958 21.4728 32.5958 19.9843C32.5958 18.4957 32.004 17.0681 30.9506 16.0155C29.8972 14.963 28.4685 14.3717 26.9787 14.3717C25.489 14.3717 24.0603 14.963 23.0069 16.0155C21.9535 17.0681 21.3617 18.4957 21.3617 19.9843C21.3617 21.4728 21.9535 22.9004 23.0069 23.953C24.0603 25.0055 25.489 25.5969 26.9787 25.5969V25.5969ZM24.5213 21.3874H28.383C28.4761 21.3874 28.5654 21.3505 28.6312 21.2847C28.6971 21.2189 28.7341 21.1297 28.7341 21.0366C28.7341 20.9436 28.6971 20.8544 28.6312 20.7886C28.5654 20.7228 28.4761 20.6858 28.383 20.6858H25.5745C25.1089 20.6858 24.6625 20.501 24.3333 20.1721C24.0041 19.8432 23.8192 19.3971 23.8192 18.9319C23.8192 18.4667 24.0041 18.0206 24.3333 17.6917C24.6625 17.3627 25.1089 17.178 25.5745 17.178H26.2766V15.7748H27.6809V17.178H29.4362V18.5811H25.5745C25.4814 18.5811 25.3921 18.6181 25.3262 18.6839C25.2604 18.7496 25.2234 18.8389 25.2234 18.9319C25.2234 19.0249 25.2604 19.1142 25.3262 19.1799C25.3921 19.2457 25.4814 19.2827 25.5745 19.2827H28.383C28.8485 19.2827 29.295 19.4675 29.6242 19.7964C29.9534 20.1253 30.1383 20.5714 30.1383 21.0366C30.1383 21.5018 29.9534 21.9479 29.6242 22.2768C29.295 22.6058 28.8485 22.7906 28.383 22.7906H27.6809V24.1937H26.2766V22.7906H24.5213V21.3874Z" fill="#FAD131"/>
<path d="M13.0213 15.9023H15.9149V18.7936H13.0213V15.9023ZM13.0213 10.1196H15.9149V13.0109H13.0213V10.1196ZM13.0213 4.33691H15.9149V7.22825H13.0213V4.33691Z" fill="#FAD131"/>
</svg>
