<svg width="35" height="28" viewBox="0 0 35 28" fill="none" xmlns="http://www.w3.org/2000/svg">
<path d="M17.3189 25.0926L27.7919 27.3478C28.5283 27.5064 29.2024 27.3844 29.8142 26.9819C30.426 26.5794 30.8102 26.0051 30.9667 25.2591L34.3059 9.34376C34.4624 8.59772 34.3421 7.9148 33.9447 7.29497C33.5474 6.67515 32.9806 6.28595 32.2442 6.12738L21.7711 3.87211C21.0347 3.71353 20.3606 3.8355 19.7488 4.23802C19.137 4.64054 18.7528 5.21481 18.5963 5.96085L15.2571 21.8762C15.1006 22.6222 15.221 23.3051 15.6183 23.925C16.0156 24.5448 16.5825 24.934 17.3189 25.0926ZM20.3555 6.33966C20.4772 5.75941 20.8244 5.53096 21.3972 5.65429L31.8703 7.90957C32.443 8.0329 32.6685 8.38469 32.5468 8.96494L29.2076 24.8803C29.0858 25.4605 28.7386 25.689 28.1659 25.5656L17.6928 23.3104C17.12 23.187 16.8945 22.8352 17.0163 22.255L20.3555 6.33966ZM27.3998 16.1738L25.5207 12.087L22.1633 15.0462L24.0424 19.1329L27.3998 16.1738Z" fill="#FAD131"/>
<rect y="3.94727" width="18.9853" height="24.3017" transform="rotate(-12 0 3.94727)" fill="#282F44"/>
<path d="M8.20674 25.127L18.6798 22.8718C19.4162 22.7132 19.9831 22.324 20.3804 21.7042C20.7777 21.0843 20.8981 20.4014 20.7416 19.6554L17.4024 3.74004C17.2459 2.99401 16.8617 2.41974 16.2499 2.01722C15.6381 1.6147 14.964 1.49273 14.2276 1.65131L3.7545 3.90658C3.01811 4.06515 2.45126 4.45435 2.05395 5.07417C1.65663 5.694 1.53624 6.37692 1.69276 7.12295L5.03194 23.0383C5.18847 23.7843 5.57264 24.3586 6.18445 24.7611C6.79626 25.1636 7.47036 25.2856 8.20674 25.127ZM3.45191 6.74414C3.33017 6.16389 3.55567 5.8121 4.12842 5.68877L14.6015 3.43349C15.1742 3.31016 15.5215 3.53861 15.6432 4.11886L18.9824 20.0342C19.1042 20.6144 18.8787 20.9662 18.3059 21.0896L7.83283 23.3448C7.26008 23.4682 6.91284 23.2397 6.79109 22.6595L3.45191 6.74414ZM9.83193 15.5502C10.1592 15.4797 10.4389 15.3184 10.6711 15.0662L11.0972 17.0971L10.1972 17.2909L10.3885 18.2027L13.9068 17.4451L13.7155 16.5333L12.8154 16.7271L12.3893 14.6962C12.7026 14.8309 13.0229 14.863 13.3502 14.7925C13.8139 14.6927 14.1785 14.4265 14.444 13.9939C14.7096 13.5612 14.7931 13.1101 14.6946 12.6403C14.596 12.1706 14.3386 11.7929 13.9223 11.5071C13.506 11.2213 13.066 11.1283 12.6024 11.2282C12.5038 10.7584 12.2411 10.3891 11.814 10.12C11.387 9.851 10.9417 9.7664 10.478 9.86624C10.0144 9.96609 9.6415 10.2269 9.3594 10.6486C9.07731 11.0703 8.98554 11.5161 9.08409 11.9858C8.62044 12.0856 8.25584 12.3519 7.99028 12.7845C7.72472 13.2171 7.64122 13.6683 7.73977 14.138C7.83832 14.6077 8.09574 14.9855 8.51203 15.2713C8.92831 15.557 9.36828 15.65 9.83193 15.5502Z" fill="#FAD131"/>
</svg>
