<svg width="26" height="26" viewBox="0 0 26 26" fill="none" xmlns="http://www.w3.org/2000/svg">
<path d="M13.1279 25.0004C19.6849 25.0004 25.0004 19.6849 25.0004 13.1279C25.0004 6.57087 19.6849 1.25537 13.1279 1.25537C6.57087 1.25537 1.25537 6.57087 1.25537 13.1279C1.25537 19.6849 6.57087 25.0004 13.1279 25.0004Z" stroke="#FAD131" stroke-width="2" stroke-miterlimit="10" stroke-linecap="round"/>
<path d="M13.1279 8.12842L8.42285 12.0754L9.66513 17.0853H16.5908L17.833 12.0754L13.1279 8.12842Z" stroke="#FAD131" stroke-width="2" stroke-linecap="round" stroke-linejoin="round"/>
<path d="M17.833 12.0754L21.1023 10.6903L22.6964 6.16016" stroke="#FAD131" stroke-width="2" stroke-linecap="round" stroke-linejoin="round"/>
<path d="M24.9386 13.9916L21.1023 10.6902" stroke="#FAD131" stroke-width="2" stroke-linecap="round" stroke-linejoin="round"/>
<path d="M8.42284 12.0754L5.15358 10.6903L3.55945 6.16016" stroke="#FAD131" stroke-width="2" stroke-linecap="round" stroke-linejoin="round"/>
<path d="M1.31726 13.9916L5.15356 10.6902" stroke="#FAD131" stroke-width="2" stroke-linecap="round" stroke-linejoin="round"/>
<path d="M13.1279 8.12846V4.56857L17.0854 1.93188" stroke="#FAD131" stroke-width="2" stroke-linecap="round" stroke-linejoin="round"/>
<path d="M9.17041 1.93115L13.1279 4.56845" stroke="#FAD131" stroke-width="2" stroke-linecap="round" stroke-linejoin="round"/>
<path d="M16.5907 17.0854L18.3221 20.0536L16.5907 24.4439" stroke="#FAD131" stroke-width="2" stroke-linecap="round" stroke-linejoin="round"/>
<path d="M22.6964 20.0535H18.4458" stroke="#FAD131" stroke-width="2" stroke-linecap="round" stroke-linejoin="round"/>
<path d="M9.66512 17.0854L7.93372 20.0536L9.688 24.4748" stroke="#FAD131" stroke-width="2" stroke-linecap="round" stroke-linejoin="round"/>
<path d="M3.58228 20.0535H7.93367" stroke="#FAD131" stroke-width="2" stroke-linecap="round" stroke-linejoin="round"/>
</svg>
