<svg width="29" height="29" viewBox="0 0 29 29" fill="none" xmlns="http://www.w3.org/2000/svg">
<path d="M26.8052 14.3017L15.8623 3.3644L15.1288 2.63091C14.9617 2.46488 14.7356 2.3717 14.5001 2.3717C14.2645 2.3717 14.0385 2.46488 13.8714 2.63091L2.19489 14.3017C2.02364 14.4723 1.8883 14.6755 1.79686 14.8992C1.70541 15.1229 1.65972 15.3627 1.66247 15.6044C1.6738 16.6013 2.50358 17.3971 3.50046 17.3971H4.70407V26.621H24.2961V17.3971H25.5252C26.0094 17.3971 26.4654 17.2074 26.8081 16.8647C26.9768 16.6965 27.1105 16.4965 27.2014 16.2763C27.2923 16.0561 27.3386 15.82 27.3377 15.5818C27.3377 15.1003 27.1479 14.6444 26.8052 14.3017ZM16.086 24.582H12.9141V18.8046H16.086V24.582ZM22.257 15.3581V24.582H17.8985V18.125C17.8985 17.4991 17.3916 16.9921 16.7657 16.9921H12.2344C11.6086 16.9921 11.1016 17.4991 11.1016 18.125V24.582H6.74313V15.3581H4.02438L14.5029 4.88804L15.1571 5.54223L24.9786 15.3581H22.257Z" fill="#FAD131"/>
</svg>
