<svg width="26" height="26" viewBox="0 0 26 26" fill="none" xmlns="http://www.w3.org/2000/svg">
<path d="M13.1279 25.0004C19.6849 25.0004 25.0004 19.6849 25.0004 13.1279C25.0004 6.57093 19.6849 1.25543 13.1279 1.25543C6.57087 1.25543 1.25537 6.57093 1.25537 13.1279C1.25537 19.6849 6.57087 25.0004 13.1279 25.0004Z" fill="#282F44" stroke="#FAD131" stroke-width="2" stroke-miterlimit="10" stroke-linecap="round"/>
<path d="M13.1279 8.12836L8.42285 12.0753L9.66513 17.0853H16.5908L17.833 12.0753L13.1279 8.12836Z" fill="#282F44" stroke="#FAD131" stroke-width="2" stroke-linecap="round" stroke-linejoin="round"/>
<path d="M17.833 12.0755L21.1023 10.6904L22.6964 6.16028" fill="#282F44"/>
<path d="M17.833 12.0755L21.1023 10.6904L22.6964 6.16028" stroke="#FAD131" stroke-width="2" stroke-linecap="round" stroke-linejoin="round"/>
<path d="M24.9386 13.9917L21.1023 10.6902L24.9386 13.9917Z" fill="#282F44"/>
<path d="M24.9386 13.9917L21.1023 10.6902" stroke="#FAD131" stroke-width="2" stroke-linecap="round" stroke-linejoin="round"/>
<path d="M8.42272 12.0755L5.15346 10.6904L3.55933 6.16028" fill="#282F44"/>
<path d="M8.42272 12.0755L5.15346 10.6904L3.55933 6.16028" stroke="#FAD131" stroke-width="2" stroke-linecap="round" stroke-linejoin="round"/>
<path d="M1.31714 13.9917L5.15344 10.6902L1.31714 13.9917Z" fill="#282F44"/>
<path d="M1.31714 13.9917L5.15344 10.6902" stroke="#FAD131" stroke-width="2" stroke-linecap="round" stroke-linejoin="round"/>
<path d="M13.1279 8.12852V4.56863L17.0854 1.93195" fill="#282F44"/>
<path d="M13.1279 8.12852V4.56863L17.0854 1.93195" stroke="#FAD131" stroke-width="2" stroke-linecap="round" stroke-linejoin="round"/>
<path d="M9.17041 1.93127L13.1279 4.56857L9.17041 1.93127Z" fill="#282F44"/>
<path d="M9.17041 1.93127L13.1279 4.56857" stroke="#FAD131" stroke-width="2" stroke-linecap="round" stroke-linejoin="round"/>
<path d="M16.5908 17.0854L18.3222 20.0535L16.5908 24.4439" fill="#282F44"/>
<path d="M16.5908 17.0854L18.3222 20.0535L16.5908 24.4439" stroke="#FAD131" stroke-width="2" stroke-linecap="round" stroke-linejoin="round"/>
<path d="M22.6964 20.0535H18.4458H22.6964Z" fill="#282F44"/>
<path d="M22.6964 20.0535H18.4458" stroke="#FAD131" stroke-width="2" stroke-linecap="round" stroke-linejoin="round"/>
<path d="M9.665 17.0854L7.93359 20.0535L9.68788 24.4748" fill="#282F44"/>
<path d="M9.665 17.0854L7.93359 20.0535L9.68788 24.4748" stroke="#FAD131" stroke-width="2" stroke-linecap="round" stroke-linejoin="round"/>
<path d="M3.58228 20.0535H7.93367H3.58228Z" fill="#282F44"/>
<path d="M3.58228 20.0535H7.93367" stroke="#FAD131" stroke-width="2" stroke-linecap="round" stroke-linejoin="round"/>
</svg>
