<svg width="41" height="41" viewBox="0 0 41 41" fill="none" xmlns="http://www.w3.org/2000/svg">
<path d="M29.5659 13.4262H21.5034V8.16557H36.2847C36.8191 8.16498 37.3314 7.95695 37.7093 7.58712C38.0871 7.21728 38.2997 6.71585 38.3003 6.19283V0.93219H35.6128V5.53525H20.8315C20.2971 5.53584 19.7848 5.74387 19.4069 6.1137C19.0291 6.48353 18.8165 6.98497 18.8159 7.50799V13.4262H10.7534C7.90333 13.4294 5.1709 14.5389 3.15558 16.5113C1.14026 18.4837 0.00664111 21.158 0.00341797 23.9475V32.2456C0.00570752 34.2297 0.812057 36.132 2.24556 37.535C3.67907 38.938 5.62266 39.7272 7.64994 39.7294H7.80112C8.92242 39.7309 10.0303 39.4903 11.0457 39.0249C12.0612 38.5594 12.9593 37.8806 13.6761 37.0366L18.1021 31.8384H22.186L26.6092 37.4661C27.5829 38.7047 28.9283 39.6139 30.4568 40.0662C31.9853 40.5184 33.62 40.491 35.1318 39.9877C36.6435 39.4845 37.9563 38.5307 38.8861 37.2601C39.8158 35.9895 40.3158 34.466 40.3159 32.9031V23.9475C40.3127 21.158 39.1791 18.4837 37.1638 16.5113C35.1484 14.5389 32.416 13.4294 29.5659 13.4262ZM37.6284 32.9031C37.6284 33.9167 37.3041 34.9049 36.7011 35.729C36.0981 36.553 35.2466 37.1717 34.2662 37.498C33.2857 37.8244 32.2254 37.8422 31.2341 37.5488C30.2428 37.2554 29.3702 36.6657 28.7388 35.8623L23.5088 29.2081H16.8428L11.6111 35.3527C11.1463 35.9 10.5639 36.3402 9.90538 36.6421C9.24689 36.9439 8.5285 37.1 7.80137 37.0991H7.6502C6.33539 37.0977 5.07483 36.5859 4.14509 35.676C3.21536 34.7661 2.69239 33.5324 2.69092 32.2456V23.9475C2.69332 21.8554 3.54353 19.8497 5.05502 18.3703C6.56651 16.891 8.61585 16.0589 10.7534 16.0565H29.5659C31.7035 16.0589 33.7528 16.891 35.2643 18.3703C36.7758 19.8497 37.626 21.8554 37.6284 23.9475V32.9031Z" fill="url(#paint0_linear)"/>
<path d="M28.894 20.002H31.5815V22.6323H28.894V20.002Z" fill="url(#paint1_linear)"/>
<path d="M28.894 26.5778H31.5815V29.2081H28.894V26.5778Z" fill="url(#paint2_linear)"/>
<path d="M25.5347 23.2899H28.2222V25.9202H25.5347V23.2899Z" fill="url(#paint3_linear)"/>
<path d="M32.2534 23.2899H34.9409V25.9202H32.2534V23.2899Z" fill="url(#paint4_linear)"/>
<path d="M11.4253 20.002H8.73779V23.2899H5.37842V25.9202H8.73779V29.2081H11.4253V25.9202H14.7847V23.2899H11.4253V20.002Z" fill="url(#paint5_linear)"/>
<defs>
<linearGradient id="paint0_linear" x1="20.1597" y1="0.93219" x2="20.1597" y2="40.3864" gradientUnits="userSpaceOnUse">
<stop stop-color="#7232F2"/>
<stop offset="1" stop-color="#AF52DE"/>
</linearGradient>
<linearGradient id="paint1_linear" x1="30.2378" y1="20.002" x2="30.2378" y2="22.6323" gradientUnits="userSpaceOnUse">
<stop stop-color="#7232F2"/>
<stop offset="1" stop-color="#AF52DE"/>
</linearGradient>
<linearGradient id="paint2_linear" x1="30.2378" y1="26.5778" x2="30.2378" y2="29.2081" gradientUnits="userSpaceOnUse">
<stop stop-color="#7232F2"/>
<stop offset="1" stop-color="#AF52DE"/>
</linearGradient>
<linearGradient id="paint3_linear" x1="26.8784" y1="23.2899" x2="26.8784" y2="25.9202" gradientUnits="userSpaceOnUse">
<stop stop-color="#7232F2"/>
<stop offset="1" stop-color="#AF52DE"/>
</linearGradient>
<linearGradient id="paint4_linear" x1="33.5972" y1="23.2899" x2="33.5972" y2="25.9202" gradientUnits="userSpaceOnUse">
<stop stop-color="#7232F2"/>
<stop offset="1" stop-color="#AF52DE"/>
</linearGradient>
<linearGradient id="paint5_linear" x1="10.0815" y1="20.002" x2="10.0815" y2="29.2081" gradientUnits="userSpaceOnUse">
<stop stop-color="#7232F2"/>
<stop offset="1" stop-color="#AF52DE"/>
</linearGradient>
</defs>
</svg>
