<svg width="58" height="49" viewBox="0 0 58 49" fill="none" xmlns="http://www.w3.org/2000/svg">
<rect x="-16.7969" y="30.3169" width="76" height="23" rx="5" transform="rotate(-36.9823 -16.7969 30.3169)" fill="#ED4C5C"/>
<path d="M20.8429 22.1352C20.9398 22.0622 21.048 22.0508 21.1676 22.101C21.2946 22.1455 21.4171 22.2461 21.535 22.4026C21.754 22.6934 21.8572 22.9779 21.8447 23.256C21.7859 24.714 21.339 25.7574 20.504 26.3863C19.7808 26.9309 18.9924 27.0864 18.1389 26.8529C17.2854 26.6194 16.4656 25.9807 15.6796 24.9369C15.4887 24.6835 15.3089 24.4215 15.1404 24.1512C14.7157 24.6112 14.2294 25.0826 13.6816 25.5653C13.3163 25.887 13.0657 26.105 12.9297 26.2191C13.3532 27.0919 13.8463 28.1811 14.4089 29.4866C14.7408 30.2532 14.6868 30.8021 14.2469 31.1334C13.7697 31.4927 13.3683 31.4562 13.0427 31.0237C12.9697 30.9268 12.8873 30.7786 12.7954 30.579C12.2797 29.3667 11.8297 28.3502 11.4454 27.5297L10.9255 27.9563C10.6794 28.1416 10.4696 28.2353 10.296 28.2375C10.1168 28.2323 9.95421 28.1327 9.80823 27.9389C9.62295 27.6928 9.55903 27.4606 9.61646 27.242C9.66829 27.0161 9.85261 26.7721 10.1694 26.5102L10.7453 26.0414C10.1475 24.8442 9.64084 23.9697 9.22536 23.418C8.96147 23.0676 8.72961 22.8683 8.52978 22.8202C8.32996 22.772 8.1443 22.8125 7.97282 22.9417C7.45093 23.3347 7.19038 24.2144 7.1912 25.5808C7.18972 25.7805 7.12934 25.9253 7.01005 26.0152C6.90567 26.0938 6.77971 26.1127 6.63216 26.0719C6.48461 26.0311 6.35469 25.9362 6.2424 25.7871C6.06835 25.5559 5.97626 25.2397 5.96614 24.8384C5.9517 24.1366 6.08475 23.4522 6.36531 22.7852C6.64025 22.1108 7.03495 21.5799 7.54939 21.1925C8.03401 20.8275 8.53312 20.7146 9.04673 20.8536C9.56217 20.9795 10.0838 21.3929 10.6116 22.0937C11.0776 22.7125 11.6198 23.6186 12.2381 24.8121L13.292 23.9308C13.7448 23.5547 14.1194 23.2143 14.4156 22.9094C13.9322 21.9882 13.5589 21.0659 13.2957 20.1424C13.0326 19.2189 12.9376 18.3791 13.0108 17.623C13.084 16.8668 13.3741 16.2979 13.881 15.9161C14.2538 15.6353 14.6606 15.5627 15.1014 15.6981C15.5366 15.826 15.9339 16.1286 16.2932 16.6057C17.6856 18.4547 17.7082 20.4474 16.3609 22.5836C16.5632 22.8987 16.785 23.2165 17.0264 23.5371C17.6159 24.3199 18.1312 24.8024 18.5721 24.9845C19.0129 25.1665 19.4086 25.1256 19.759 24.8617C20.0647 24.6315 20.2853 24.3427 20.4209 23.9952C20.5509 23.6403 20.6302 23.1483 20.6588 22.5192C20.6697 22.3474 20.731 22.2194 20.8429 22.1352ZM14.5578 16.9311C14.3938 17.0547 14.3309 17.3357 14.3691 17.7743C14.4147 18.2073 14.5493 18.7427 14.7726 19.3807C14.996 20.0187 15.2895 20.6798 15.6529 21.3642C16.0641 20.669 16.2401 19.9873 16.1809 19.3191C16.1218 18.651 15.8227 17.959 15.2837 17.2433C15.1545 17.0718 15.0236 16.9601 14.891 16.9081C14.7584 16.8561 14.6473 16.8638 14.5578 16.9311ZM25.8838 22.3349C25.2202 22.8346 24.5078 23.1375 23.7464 23.2435C22.9924 23.3439 22.2427 23.225 21.4973 22.8867C20.7462 22.541 20.0675 21.9655 19.4611 21.1603C18.6076 20.0271 18.0603 18.8736 17.8191 17.6999C17.5853 16.5207 17.6457 15.4295 18.0003 14.4264C18.3623 13.4177 18.9757 12.5877 19.8406 11.9364C20.5041 11.4367 21.2129 11.1366 21.9668 11.0362C22.7282 10.9302 23.4844 11.05 24.2355 11.3957C24.981 11.734 25.6569 12.3057 26.2633 13.111C27.1167 14.2442 27.6603 15.4005 27.8941 16.5798C28.1353 17.7534 28.0749 18.8446 27.7129 19.8533C27.3584 20.8564 26.7486 21.6836 25.8838 22.3349ZM25.0018 20.931C25.5834 20.4931 25.9593 19.9296 26.1297 19.2404C26.3076 18.5457 26.2771 17.7916 26.0385 16.9782C25.7942 16.1573 25.3689 15.3443 24.7625 14.5391C24.0943 13.6519 23.4026 13.1212 22.6874 12.9472C21.9665 12.7657 21.3115 12.8967 20.7225 13.3402C20.1484 13.7726 19.7762 14.3333 19.6058 15.0224C19.4298 15.7041 19.4602 16.4582 19.6971 17.2846C19.9283 18.1037 20.3499 18.9195 20.9619 19.7322C21.63 20.6194 22.3245 21.1538 23.0454 21.3353C23.7607 21.5093 24.4128 21.3746 25.0018 20.931ZM33.1373 2.23843C33.4021 2.10911 33.6326 2.05826 33.8286 2.08588C34.0321 2.10788 34.19 2.19343 34.3023 2.34255C34.4876 2.58858 34.5515 2.82086 34.4941 3.03937C34.4441 3.25227 34.2616 3.45983 33.9465 3.66205C33.2362 4.11517 32.6853 4.47746 32.2938 4.74889C31.9042 5.00726 31.4009 5.36291 30.7839 5.81586C31.5412 7.39544 32.3264 8.96564 33.1396 10.5264C33.4394 11.0952 33.7972 11.7488 34.213 12.4871C34.6233 13.2181 34.9679 13.7998 35.2469 14.2323C35.3948 14.4598 35.4316 14.6949 35.3574 14.9377C35.2776 15.1731 35.1222 15.3778 34.891 15.5518C34.645 15.7371 34.41 15.8206 34.1859 15.8024C33.9619 15.7842 33.7769 15.6781 33.6309 15.4843C33.4962 15.3054 33.3005 14.9912 33.0439 14.5418C32.7891 14.0794 32.5277 13.5927 32.2598 13.0818C31.9993 12.5652 31.7651 12.1223 31.5572 11.7532C31.2125 11.1248 30.8818 10.4917 30.5651 9.85389C30.2483 9.21612 29.9541 8.60816 29.6823 8.03002C29.6204 7.90134 29.5511 7.75495 29.4742 7.59083C29.3917 7.41926 29.3018 7.22997 29.2043 7.02296C28.4905 7.59556 27.9613 8.08753 27.6168 8.49888C27.2723 8.91022 27.0779 9.27274 27.0337 9.58642C26.9914 9.88704 27.0741 10.1753 27.2818 10.4511C27.4727 10.7046 27.7298 10.8908 28.0529 11.0096C28.122 11.0394 28.1791 11.084 28.224 11.1437C28.3307 11.2853 28.346 11.4841 28.27 11.74C28.1958 11.9828 28.0692 12.1716 27.8903 12.3063C27.7635 12.4018 27.6311 12.4431 27.4929 12.4303C27.2483 12.4159 26.9906 12.3296 26.7196 12.1714C26.443 12.0059 26.1924 11.7739 25.9678 11.4757C25.4906 10.842 25.3138 10.1806 25.4375 9.49156C25.5631 8.78944 25.9797 8.03169 26.6875 7.2183C27.4027 6.39929 28.4238 5.49009 29.7509 4.49068C30.5711 3.87307 31.2347 3.3967 31.7417 3.06157C32.2563 2.72083 32.7215 2.44645 33.1373 2.23843Z" fill="white"/>
</svg>
