<svg width="47" height="38" viewBox="0 0 47 38" fill="none" xmlns="http://www.w3.org/2000/svg">
<path d="M39.4209 12.6504V4.81253C39.4209 3.77317 39.0107 2.77638 38.2806 2.04144C37.5505 1.3065 36.5603 0.893616 35.5277 0.893616H4.38242C2.24118 0.893616 0.508724 2.63753 0.508724 4.81253V12.6504C2.64996 12.6504 4.38242 14.4139 4.38242 16.5693C4.38242 18.7247 2.64996 20.4882 0.489258 20.4882V28.326C0.489258 30.4814 2.24118 32.245 4.38242 32.245H35.5277C37.669 32.245 39.4209 30.4814 39.4209 28.326V20.4882C37.2797 20.4882 35.5277 18.7247 35.5277 16.5693C35.5277 14.4139 37.2797 12.6504 39.4209 12.6504ZM35.5277 9.78956C33.2113 11.1416 31.6346 13.6889 31.6346 16.5693C31.6346 19.4497 33.2113 21.997 35.5277 23.349V28.326H4.38242V23.349C6.69886 21.997 8.27559 19.4497 8.27559 16.5693C8.27559 13.6693 6.71832 11.1416 4.40189 9.78956L4.38242 4.81253H35.5277V9.78956ZM18.0085 22.4477H21.9017V26.3666H18.0085V22.4477ZM18.0085 14.6098H21.9017V18.5287H18.0085V14.6098ZM18.0085 6.77199H21.9017V10.6909H18.0085V6.77199Z" fill="url(#paint0_linear)"/>
<ellipse cx="37.1308" cy="28.326" rx="8.24435" ry="8.29889" fill="#161A26"/>
<path d="M36.7872 37.4894C31.5698 37.4894 27.3406 33.2321 27.3406 27.9802C27.3406 22.7283 31.5698 18.4711 36.7872 18.4711C42.0046 18.4711 46.2339 22.7283 46.2339 27.9802C46.2339 33.2321 42.0046 37.4894 36.7872 37.4894ZM36.7872 35.5875C38.7916 35.5875 40.7138 34.7861 42.1311 33.3594C43.5483 31.9328 44.3445 29.9978 44.3445 27.9802C44.3445 25.9627 43.5483 24.0277 42.1311 22.6011C40.7138 21.1744 38.7916 20.3729 36.7872 20.3729C34.7829 20.3729 32.8607 21.1744 31.4434 22.6011C30.0261 24.0277 29.2299 25.9627 29.2299 27.9802C29.2299 29.9978 30.0261 31.9328 31.4434 33.3594C32.8607 34.7861 34.7829 35.5875 36.7872 35.5875ZM33.4809 29.8821H38.6766C38.8018 29.8821 38.922 29.832 39.0105 29.7428C39.0991 29.6536 39.1489 29.5327 39.1489 29.4066C39.1489 29.2805 39.0991 29.1596 39.0105 29.0704C38.922 28.9812 38.8018 28.9312 38.6766 28.9312H34.8979C34.2715 28.9312 33.6708 28.6807 33.2279 28.2349C32.7851 27.789 32.5362 27.1844 32.5362 26.5539C32.5362 25.9234 32.7851 25.3187 33.2279 24.8729C33.6708 24.427 34.2715 24.1766 34.8979 24.1766H35.8426V22.2748H37.7319V24.1766H40.0936V26.0784H34.8979C34.7726 26.0784 34.6525 26.1285 34.5639 26.2177C34.4753 26.3068 34.4256 26.4278 34.4256 26.5539C34.4256 26.68 34.4753 26.8009 34.5639 26.8901C34.6525 26.9792 34.7726 27.0293 34.8979 27.0293H38.6766C39.3029 27.0293 39.9036 27.2798 40.3465 27.7256C40.7894 28.1714 41.0382 28.7761 41.0382 29.4066C41.0382 30.0371 40.7894 30.6418 40.3465 31.0876C39.9036 31.5334 39.3029 31.7839 38.6766 31.7839H37.7319V33.6857H35.8426V31.7839H33.4809V29.8821Z" fill="url(#paint1_linear)"/>
<defs>
<linearGradient id="paint0_linear" x1="19.9551" y1="0.893616" x2="19.9551" y2="32.245" gradientUnits="userSpaceOnUse">
<stop stop-color="#FFCC2F"/>
<stop offset="0.0001" stop-color="#FFCC57"/>
<stop offset="1" stop-color="#FF9F00"/>
</linearGradient>
<linearGradient id="paint1_linear" x1="36.7872" y1="18.4711" x2="36.7872" y2="37.4894" gradientUnits="userSpaceOnUse">
<stop stop-color="#FFCC2F"/>
<stop offset="0.0001" stop-color="#FFCC57"/>
<stop offset="1" stop-color="#FF9F00"/>
</linearGradient>
</defs>
</svg>
