<svg width="44" height="44" viewBox="0 0 44 44" fill="none" xmlns="http://www.w3.org/2000/svg">
<path d="M22.0001 36.6667H36.6667V40.3334H22.0001C11.8746 40.3334 3.66675 32.1255 3.66675 22C3.66675 11.8745 11.8746 3.66669 22.0001 3.66669C32.1256 3.66669 40.3334 11.8745 40.3334 22C40.3393 25.9678 39.0521 29.8293 36.6667 33H31.7021C34.2766 30.7295 35.9731 27.628 36.4963 24.2355C37.0195 20.8429 36.3362 17.3744 34.5653 14.4338C32.7945 11.4932 30.0484 9.26684 26.8051 8.14247C23.5618 7.0181 20.0269 7.06693 16.816 8.28045C13.605 9.49397 10.9214 11.7953 9.23245 14.7837C7.54352 17.7721 6.95627 21.2582 7.57296 24.635C8.18965 28.0118 9.97122 31.0653 12.6074 33.2638C15.2436 35.4623 18.5674 36.6665 22.0001 36.6667ZM22.0001 18.3334C21.0276 18.3334 20.095 17.947 19.4074 17.2594C18.7197 16.5718 18.3334 15.6391 18.3334 14.6667C18.3334 13.6942 18.7197 12.7616 19.4074 12.074C20.095 11.3863 21.0276 11 22.0001 11C22.9725 11 23.9052 11.3863 24.5928 12.074C25.2804 12.7616 25.6667 13.6942 25.6667 14.6667C25.6667 15.6391 25.2804 16.5718 24.5928 17.2594C23.9052 17.947 22.9725 18.3334 22.0001 18.3334ZM14.6667 25.6667C13.6943 25.6667 12.7617 25.2804 12.074 24.5927C11.3864 23.9051 11.0001 22.9725 11.0001 22C11.0001 21.0276 11.3864 20.0949 12.074 19.4073C12.7617 18.7197 13.6943 18.3334 14.6667 18.3334C15.6392 18.3334 16.5718 18.7197 17.2595 19.4073C17.9471 20.0949 18.3334 21.0276 18.3334 22C18.3334 22.9725 17.9471 23.9051 17.2595 24.5927C16.5718 25.2804 15.6392 25.6667 14.6667 25.6667ZM29.3334 25.6667C28.361 25.6667 27.4283 25.2804 26.7407 24.5927C26.0531 23.9051 25.6667 22.9725 25.6667 22C25.6667 21.0276 26.0531 20.0949 26.7407 19.4073C27.4283 18.7197 28.361 18.3334 29.3334 18.3334C30.3059 18.3334 31.2385 18.7197 31.9261 19.4073C32.6138 20.0949 33.0001 21.0276 33.0001 22C33.0001 22.9725 32.6138 23.9051 31.9261 24.5927C31.2385 25.2804 30.3059 25.6667 29.3334 25.6667ZM22.0001 33C21.0276 33 20.095 32.6137 19.4074 31.9261C18.7197 31.2384 18.3334 30.3058 18.3334 29.3334C18.3334 28.3609 18.7197 27.4283 19.4074 26.7406C20.095 26.053 21.0276 25.6667 22.0001 25.6667C22.9725 25.6667 23.9052 26.053 24.5928 26.7406C25.2804 27.4283 25.6667 28.3609 25.6667 29.3334C25.6667 30.3058 25.2804 31.2384 24.5928 31.9261C23.9052 32.6137 22.9725 33 22.0001 33Z" fill="white"/>
</svg>
