<svg width="33" height="41" viewBox="0 0 33 41" fill="none" xmlns="http://www.w3.org/2000/svg">
<path d="M28.1875 27.3333H25.4375C25.0525 27.3333 24.75 27.7091 24.75 28.1875C24.75 28.6658 25.0525 29.0416 25.4375 29.0416H27.5V29.8958H26.8125C26.4275 29.8958 26.125 30.2716 26.125 30.75C26.125 31.2283 26.4275 31.6041 26.8125 31.6041H27.5V32.4583H25.4375C25.0525 32.4583 24.75 32.8341 24.75 33.3125C24.75 33.7908 25.0525 34.1666 25.4375 34.1666H28.1875C28.5725 34.1666 28.875 33.7908 28.875 33.3125V28.1875C28.875 27.7091 28.5725 27.3333 28.1875 27.3333ZM25.4375 8.54165H26.125V12.8125C26.125 13.2908 26.4275 13.6666 26.8125 13.6666C27.1975 13.6666 27.5 13.2908 27.5 12.8125V7.68748C27.5 7.20915 27.1975 6.83331 26.8125 6.83331H25.4375C25.0525 6.83331 24.75 7.20915 24.75 7.68748C24.75 8.16581 25.0525 8.54165 25.4375 8.54165ZM28.875 18.3133V17.9375C28.875 17.4591 28.5725 17.0833 28.1875 17.0833H25.4375C25.0525 17.0833 24.75 17.4591 24.75 17.9375C24.75 18.4158 25.0525 18.7916 25.4375 18.7916H27.225L24.915 22.14C24.809 22.2917 24.7504 22.4857 24.75 22.6866V23.0625C24.75 23.5408 25.0525 23.9166 25.4375 23.9166H28.1875C28.5725 23.9166 28.875 23.5408 28.875 23.0625C28.875 22.5841 28.5725 22.2083 28.1875 22.2083H26.4L28.71 18.86C28.816 18.7083 28.8746 18.5142 28.875 18.3133ZM20.625 8.54165H4.125C3.36875 8.54165 2.75 9.3104 2.75 10.25C2.75 11.1896 3.36875 11.9583 4.125 11.9583H20.625C21.3812 11.9583 22 11.1896 22 10.25C22 9.3104 21.3812 8.54165 20.625 8.54165ZM20.625 29.0416H4.125C3.36875 29.0416 2.75 29.8104 2.75 30.75C2.75 31.6896 3.36875 32.4583 4.125 32.4583H20.625C21.3812 32.4583 22 31.6896 22 30.75C22 29.8104 21.3812 29.0416 20.625 29.0416ZM20.625 18.7916H4.125C3.36875 18.7916 2.75 19.5604 2.75 20.5C2.75 21.4396 3.36875 22.2083 4.125 22.2083H20.625C21.3812 22.2083 22 21.4396 22 20.5C22 19.5604 21.3812 18.7916 20.625 18.7916Z" fill="white"/>
</svg>
