<svg width="37" height="37" viewBox="0 0 37 37" fill="none" xmlns="http://www.w3.org/2000/svg">
<path d="M18.4999 33.9166C9.98529 33.9166 3.08325 27.0146 3.08325 18.5C3.08325 9.98535 9.98529 3.08331 18.4999 3.08331C27.0145 3.08331 33.9166 9.98535 33.9166 18.5C33.9166 27.0146 27.0145 33.9166 18.4999 33.9166ZM18.4999 30.8333C21.7709 30.8333 24.908 29.5339 27.2209 27.221C29.5339 24.908 30.8333 21.771 30.8333 18.5C30.8333 15.229 29.5339 12.0919 27.2209 9.779C24.908 7.46605 21.7709 6.16665 18.4999 6.16665C15.2289 6.16665 12.0919 7.46605 9.77893 9.779C7.46599 12.0919 6.16659 15.229 6.16659 18.5C6.16659 21.771 7.46599 24.908 9.77893 27.221C12.0919 29.5339 15.2289 30.8333 18.4999 30.8333ZM13.1041 21.5833H21.5833C21.7877 21.5833 21.9838 21.5021 22.1283 21.3575C22.2729 21.213 22.3541 21.0169 22.3541 20.8125C22.3541 20.608 22.2729 20.412 22.1283 20.2674C21.9838 20.1229 21.7877 20.0416 21.5833 20.0416H15.4166C14.3944 20.0416 13.4141 19.6356 12.6913 18.9128C11.9685 18.19 11.5624 17.2097 11.5624 16.1875C11.5624 15.1653 11.9685 14.185 12.6913 13.4622C13.4141 12.7394 14.3944 12.3333 15.4166 12.3333H16.9583V9.24998H20.0416V12.3333H23.8958V15.4166H15.4166C15.2121 15.4166 15.0161 15.4979 14.8715 15.6424C14.727 15.787 14.6458 15.983 14.6458 16.1875C14.6458 16.3919 14.727 16.588 14.8715 16.7325C15.0161 16.8771 15.2121 16.9583 15.4166 16.9583H21.5833C22.6054 16.9583 23.5858 17.3644 24.3086 18.0872C25.0314 18.81 25.4374 19.7903 25.4374 20.8125C25.4374 21.8347 25.0314 22.815 24.3086 23.5378C23.5858 24.2606 22.6054 24.6666 21.5833 24.6666H20.0416V27.75H16.9583V24.6666H13.1041V21.5833Z" fill="white"/>
</svg>
