<svg width="31" height="33" viewBox="0 0 31 33" fill="none" xmlns="http://www.w3.org/2000/svg">
<path d="M15.5 13.25C15.0027 13.25 14.5258 13.0788 14.1742 12.774C13.8225 12.4693 13.625 12.056 13.625 11.625L13.625 8.375C13.625 7.94402 13.8225 7.53069 14.1742 7.22595C14.5258 6.9212 15.0027 6.75 15.5 6.75C15.9973 6.75 16.4742 6.9212 16.8258 7.22595C17.1775 7.53069 17.375 7.94402 17.375 8.375L17.375 11.625C17.375 12.056 17.1775 12.4693 16.8258 12.774C16.4742 13.0788 15.9973 13.25 15.5 13.25ZM16.2125 17.995C15.8731 18.1314 15.4943 18.1767 15.125 18.125L14.7875 18.0275L14.45 17.8812L14.1687 17.6862C13.9904 17.5306 13.8503 17.3452 13.7569 17.1413C13.6634 16.9375 13.6185 16.7193 13.625 16.5C13.6236 16.2861 13.6709 16.0741 13.7642 15.8762C13.8575 15.6782 13.995 15.4981 14.1687 15.3462C14.3471 15.1983 14.5573 15.0823 14.7875 15.005C15.01 14.914 15.254 14.8695 15.5 14.875C15.7468 14.8738 15.9914 14.9148 16.2198 14.9956C16.4483 15.0765 16.656 15.1956 16.8312 15.3462C17.005 15.4981 17.1425 15.6782 17.2358 15.8762C17.3291 16.0741 17.3764 16.2861 17.375 16.5C17.3764 16.7139 17.3291 16.9259 17.2358 17.1238C17.1425 17.3218 17.005 17.5019 16.8312 17.6537C16.649 17.7973 16.4397 17.9127 16.2125 17.995ZM30.5 21.4725C30.4805 21.6218 30.4428 21.7689 30.3875 21.9113L30.3875 22.0575C30.2973 22.2246 30.1771 22.3782 30.0312 22.5125L18.7812 32.2625C18.6262 32.3889 18.449 32.4931 18.2562 32.5713L18.0687 32.5713C17.8864 32.6557 17.6905 32.716 17.4875 32.75L6.125 32.75C4.63316 32.75 3.20242 32.2364 2.14752 31.3221C1.09263 30.4079 0.5 29.1679 0.5 27.875L0.500002 5.125C0.500002 3.83207 1.09263 2.59209 2.14753 1.67785C3.20242 0.763609 4.63316 0.249997 6.125 0.249997L24.875 0.249999C26.3668 0.249999 27.7976 0.763612 28.8525 1.67785C29.9074 2.59209 30.5 3.83207 30.5 5.125L30.5 21.375L30.5 21.4725ZM19.25 27.2088L24.1062 23L21.125 23C20.6277 23 20.1508 23.1712 19.7992 23.476C19.4475 23.7807 19.25 24.194 19.25 24.625L19.25 27.2088ZM26.75 5.125C26.75 4.69402 26.5525 4.2807 26.2008 3.97595C25.8492 3.6712 25.3723 3.5 24.875 3.5L6.125 3.5C5.62772 3.5 5.15081 3.6712 4.79918 3.97595C4.44755 4.28069 4.25 4.69402 4.25 5.125L4.25 27.875C4.25 28.306 4.44754 28.7193 4.79917 29.024C5.1508 29.3288 5.62772 29.5 6.125 29.5L15.5 29.5L15.5 24.625C15.5 23.3321 16.0926 22.0921 17.1475 21.1779C18.2024 20.2636 19.6332 19.75 21.125 19.75L26.75 19.75L26.75 5.125Z" fill="white"/>
<rect width="18.2143" height="13.9286" transform="matrix(1 9.84744e-08 7.76115e-08 -1 5.85718 18.3571)" fill="#161A26"/>
<path d="M7.375 10.2321L13.4464 10.2321L13.4464 9.07143L7.375 9.07143L7.375 10.2321ZM7.375 12.5536L16.4821 12.5536L16.4821 11.3929L7.375 11.3929L7.375 12.5536ZM7.375 14.875L16.4821 14.875L16.4821 13.7143L7.375 13.7143L7.375 14.875ZM19.5179 12.5536L18 12.5536L18 10.2321L14.9643 10.2321L14.9643 9.07143L18 9.07143L18 6.75L19.5179 6.75L19.5179 9.07143L22.5536 9.07143L22.5536 10.2321L19.5179 10.2321L19.5179 12.5536Z" fill="white"/>
</svg>
