<svg width="34" height="33" viewBox="0 0 34 33" fill="none" xmlns="http://www.w3.org/2000/svg">
<path d="M32.1202 3.56758H27.0906V1.94596C27.0906 1.51588 26.914 1.10342 26.5996 0.799303C26.2851 0.49519 25.8587 0.324341 25.4141 0.324341H8.6486C8.20395 0.324341 7.77752 0.49519 7.4631 0.799303C7.14869 1.10342 6.97205 1.51588 6.97205 1.94596V3.56758H1.94241C1.49777 3.56758 1.07133 3.73843 0.756918 4.04255C0.442505 4.34666 0.265869 4.75912 0.265869 5.18921V10.0541C0.265869 17.0433 3.28197 21.2595 8.34514 21.4249C9.08636 22.657 10.0984 23.7165 11.3097 24.5286C12.5209 25.3407 13.9018 25.8854 15.3548 26.1243V29.5135H12.0017V32.7568H22.061V29.5135H18.7079V26.1243C20.1605 25.8845 21.541 25.3393 22.7521 24.5273C23.9632 23.7154 24.9755 22.6563 25.7175 21.4249C30.7807 21.2595 33.7968 17.0433 33.7968 10.0541V5.18921C33.7968 4.75912 33.6202 4.34666 33.3057 4.04255C32.9913 3.73843 32.5649 3.56758 32.1202 3.56758V3.56758ZM3.61896 10.0541V6.81083H6.97205V17.8865C3.98109 16.667 3.61896 12.1606 3.61896 10.0541ZM17.0313 23.027C13.3329 23.027 10.3251 20.1179 10.3251 16.5406V3.56758H23.7375V16.5406C23.7375 20.1179 20.7298 23.027 17.0313 23.027ZM27.0906 17.8865V6.81083H30.4437V10.0541C30.4437 12.1606 30.0816 16.667 27.0906 17.8865Z" fill="white"/>
</svg>
