<svg width="30" height="33" viewBox="0 0 30 33" fill="none" xmlns="http://www.w3.org/2000/svg">
<path d="M30 28.875L24.375 33V30.9375H15.4688L19.2188 26.8125H24.375V24.75L30 28.875Z" fill="white"/>
<path d="M0 4.125L5.625 0V2.0625H14.5312L10.7812 6.1875H5.625V8.25L0 4.125Z" fill="white"/>
<path d="M18.2625 0L0 20.0887L11.7375 33L30 12.9113L18.2625 0ZM2.60625 20.0887L18.2625 2.86687L27.3937 12.9113L11.7375 30.1331L2.60625 20.0887Z" fill="white"/>
<path d="M7.8186 20.0888L6.5061 21.5325L10.4249 25.8431L11.7374 24.3994L13.1249 25.8225L18.2624 20.0888C17.3928 21.0174 16.2259 21.5325 15.014 21.5227C13.802 21.5128 12.6422 20.9789 11.7852 20.0361C10.9282 19.0934 10.4427 17.8176 10.4338 16.4845C10.4248 15.1513 10.8931 13.8678 11.7374 12.9113L6.52485 18.5625L7.8186 20.0888Z" fill="white"/>
<path d="M23.475 11.4881L19.5563 7.17749L18.2438 8.62124L16.875 7.17749L11.7375 12.9112C12.6071 11.9825 13.774 11.4675 14.9859 11.4773C16.1979 11.4872 17.3577 12.0211 18.2147 12.9639C19.0717 13.9066 19.5572 15.1823 19.5661 16.5155C19.5751 17.8487 19.1068 19.1322 18.2625 20.0887L23.475 14.4375L22.1625 12.9937L23.475 11.4881Z" fill="white"/>
</svg>
