<svg width="36" height="37" viewBox="0 0 36 37" fill="none" xmlns="http://www.w3.org/2000/svg">
<path d="M18.45 18.8391C19.2504 18.1271 19.8923 17.2464 20.3323 16.2569C20.7723 15.2674 21 14.1921 21 13.1041C21 11.0598 20.2098 9.09913 18.8033 7.65353C17.3968 6.20794 15.4891 5.39581 13.5 5.39581C11.5109 5.39581 9.60322 6.20794 8.1967 7.65353C6.79018 9.09913 6 11.0598 6 13.1041C5.99999 14.1921 6.2277 15.2674 6.66769 16.2569C7.10767 17.2464 7.74963 18.1271 8.55 18.8391C6.45021 19.8164 4.6687 21.3945 3.41847 23.3848C2.16824 25.3751 1.50221 27.6934 1.5 30.0625C1.5 30.4714 1.65804 30.8635 1.93934 31.1526C2.22064 31.4417 2.60218 31.6042 3 31.6042C3.39782 31.6042 3.77936 31.4417 4.06066 31.1526C4.34196 30.8635 4.5 30.4714 4.5 30.0625C4.5 27.6092 5.44821 25.2565 7.13604 23.5217C8.82387 21.787 11.1131 20.8125 13.5 20.8125C15.8869 20.8125 18.1761 21.787 19.864 23.5217C21.5518 25.2565 22.5 27.6092 22.5 30.0625C22.5 30.4714 22.658 30.8635 22.9393 31.1526C23.2206 31.4417 23.6022 31.6042 24 31.6042C24.3978 31.6042 24.7794 31.4417 25.0607 31.1526C25.342 30.8635 25.5 30.4714 25.5 30.0625C25.4978 27.6934 24.8318 25.3751 23.5815 23.3848C22.3313 21.3945 20.5498 19.8164 18.45 18.8391ZM13.5 17.7291C12.61 17.7291 11.74 17.4579 10.9999 16.9497C10.2599 16.4415 9.68314 15.7192 9.34254 14.8741C9.00195 14.029 8.91283 13.099 9.08647 12.2019C9.2601 11.3047 9.68868 10.4806 10.318 9.83378C10.9474 9.18696 11.7492 8.74647 12.6221 8.56802C13.495 8.38956 14.3998 8.48115 15.2221 8.8312C16.0443 9.18126 16.7471 9.77406 17.2416 10.5346C17.7361 11.2952 18 12.1894 18 13.1041C18 14.3308 17.5259 15.5072 16.682 16.3745C15.8381 17.2419 14.6935 17.7291 13.5 17.7291ZM28.11 18.2225C29.0699 17.1114 29.697 15.7389 29.9157 14.2702C30.1344 12.8014 29.9354 11.299 29.3426 9.94373C28.7499 8.58849 27.7887 7.43821 26.5747 6.63134C25.3607 5.82447 23.9457 5.39542 22.5 5.39581C22.1022 5.39581 21.7206 5.55824 21.4393 5.84736C21.158 6.13648 21 6.5286 21 6.93748C21 7.34636 21.158 7.73848 21.4393 8.0276C21.7206 8.31672 22.1022 8.47915 22.5 8.47915C23.6935 8.47915 24.8381 8.96642 25.682 9.83378C26.5259 10.7011 27 11.8775 27 13.1041C26.9979 13.9139 26.7889 14.7089 26.3941 15.4096C25.9992 16.1103 25.4323 16.6922 24.75 17.0971C24.5276 17.2289 24.3419 17.4172 24.2105 17.644C24.0792 17.8707 24.0067 18.1283 24 18.3921C23.9937 18.6538 24.0524 18.9128 24.1705 19.1448C24.2886 19.3768 24.4622 19.574 24.675 19.7179L25.26 20.1187L25.455 20.2266C27.2631 21.108 28.7885 22.5021 29.8515 24.2447C30.9145 25.9873 31.4708 28.0058 31.455 30.0625C31.455 30.4714 31.613 30.8635 31.8943 31.1526C32.1756 31.4417 32.5572 31.6042 32.955 31.6042C33.3528 31.6042 33.7344 31.4417 34.0157 31.1526C34.297 30.8635 34.455 30.4714 34.455 30.0625C34.4673 27.6967 33.8907 25.367 32.7802 23.2947C31.6697 21.2224 30.062 19.4763 28.11 18.2225Z" fill="white"/>
</svg>
