<svg width="42" height="40" viewBox="0 0 42 40" fill="none" xmlns="http://www.w3.org/2000/svg">
<path d="M15.75 20H26.25H15.75ZM15.75 26.6667H26.25H15.75ZM29.75 35H12.25C11.3217 35 10.4315 34.6488 9.77513 34.0237C9.11875 33.3986 8.75 32.5507 8.75 31.6667V8.33333C8.75 7.44928 9.11875 6.60143 9.77513 5.97631C10.4315 5.35119 11.3217 5 12.25 5H22.0255C22.4896 5.00009 22.9346 5.17575 23.2628 5.48833L32.7373 14.5117C33.0655 14.8242 33.2499 15.248 33.25 15.69V31.6667C33.25 32.5507 32.8813 33.3986 32.2249 34.0237C31.5685 34.6488 30.6783 35 29.75 35Z" stroke="white" stroke-width="2" stroke-linecap="round" stroke-linejoin="round"/>
</svg>
