<svg width="45" height="40" viewBox="0 0 45 40" fill="none" xmlns="http://www.w3.org/2000/svg">
<path d="M15 28.3334V33.3334H30V21.6667H15V28.3334ZM11.25 25V21.6667H7.5V18.3334H11.25V15H7.5V25H11.25ZM11.25 28.3334H7.5V30C7.5 30.8841 7.89509 31.7319 8.59835 32.3571C9.30161 32.9822 10.2554 33.3334 11.25 33.3334V28.3334ZM37.5 25V15H33.75V18.3334H37.5V21.6667H33.75V25H37.5ZM37.5 28.3334H33.75V33.3334C34.7446 33.3334 35.6984 32.9822 36.4016 32.3571C37.1049 31.7319 37.5 30.8841 37.5 30V28.3334ZM30 15V6.66671H15V18.3334H30V15ZM37.5 11.6667V10C37.5 9.11599 37.1049 8.26814 36.4016 7.64302C35.6984 7.0179 34.7446 6.66671 33.75 6.66671V11.6667H37.5ZM11.25 11.6667V6.66671C10.2554 6.66671 9.30161 7.0179 8.59835 7.64302C7.89509 8.26814 7.5 9.11599 7.5 10V11.6667H11.25ZM11.25 3.33337H33.75C35.7391 3.33337 37.6468 4.03575 39.0533 5.286C40.4598 6.53624 41.25 8.23193 41.25 10V30C41.25 31.7682 40.4598 33.4638 39.0533 34.7141C37.6468 35.9643 35.7391 36.6667 33.75 36.6667H11.25C9.26088 36.6667 7.35322 35.9643 5.9467 34.7141C4.54018 33.4638 3.75 31.7682 3.75 30V10C3.75 8.23193 4.54018 6.53624 5.9467 5.286C7.35322 4.03575 9.26088 3.33337 11.25 3.33337Z" fill="white"/>
</svg>
