<svg width="28" height="28" viewBox="0 0 28 28" fill="none" xmlns="http://www.w3.org/2000/svg">
<circle cx="13.5662" cy="13.5662" r="13.0662" stroke="white"/>
<g clip-path="url(#clip0)">
<path d="M9.06966 7.74927L8.13657 6.80957C5.95605 8.97552 5.95605 10.5452 5.95605 12.5735H6.61782L7.27958 12.5318C7.27958 10.5942 7.27958 9.52677 9.06966 7.74927ZM18.3337 6.80957L17.4019 7.74927C19.1913 9.52677 19.1913 10.5942 19.1913 12.5735L20.5149 12.5318C20.5149 10.5452 20.5149 8.97552 18.3337 6.80957ZM13.2355 19.8529C13.6453 19.8535 14.0451 19.7263 14.3793 19.4891C14.7135 19.2519 14.9655 18.9165 15.1003 18.5294H11.3706C11.5054 18.9165 11.7574 19.2519 12.0916 19.4891C12.4258 19.7263 12.8256 19.8535 13.2355 19.8529ZM17.8678 14.9466V11.9118C17.8678 9.78288 16.4219 7.98949 14.463 7.45015C14.2691 6.96177 13.7953 6.61765 13.2355 6.61765C12.6756 6.61765 12.2018 6.96177 12.0079 7.45015C10.0484 7.98949 8.60311 9.78288 8.60311 11.9118V14.9466L7.47348 16.0763C7.41191 16.1376 7.36308 16.2105 7.3298 16.2908C7.29652 16.3711 7.27946 16.4572 7.27958 16.5441V17.2059C7.27958 17.3814 7.34931 17.5497 7.47341 17.6738C7.59752 17.7979 7.76584 17.8677 7.94135 17.8677H18.5296C18.7051 17.8677 18.8734 17.7979 18.9975 17.6738C19.1216 17.5497 19.1913 17.3814 19.1913 17.2059V16.5441C19.1915 16.4572 19.1744 16.3711 19.1411 16.2908C19.1079 16.2105 19.059 16.1376 18.9975 16.0763L17.8678 14.9466Z" fill="white"/>
</g>
<defs>
<clipPath id="clip0">
<rect width="15.8824" height="15.8824" fill="white" transform="translate(5.29419 5.29412)"/>
</clipPath>
</defs>
</svg>
